<svg xmlns="http://www.w3.org/2000/svg"  viewBox="0 0 64 64" width="64px" height="64px"><g data-name="Fill Outline"><path fill="#fcbc04" d="M35,34V26H31.366a12.749,12.749,0,0,0-.8-1.911l2.574-2.574-5.657-5.657-2.574,2.574a12.749,12.749,0,0,0-1.911-.8V14H15v3.634a12.749,12.749,0,0,0-1.911.8l-2.574-2.574L4.858,21.515l2.574,2.574A12.749,12.749,0,0,0,6.634,26H3v8H6.634a12.749,12.749,0,0,0,.8,1.911L4.858,38.485l5.657,5.657,2.574-2.574a12.749,12.749,0,0,0,1.911.8V46h8V42.366a12.749,12.749,0,0,0,1.911-.8l2.574,2.574,5.657-5.657-2.574-2.574a12.749,12.749,0,0,0,.8-1.911ZM19,37a7,7,0,1,1,7-7A7,7,0,0,1,19,37Z"/><path fill="#e59730" d="M31.37,34a13.987,13.987,0,0,1-.8,1.91l2.57,2.58-5.65,5.65-2.58-2.57a13.987,13.987,0,0,1-1.91.8V46H15V42.37a13.987,13.987,0,0,1-1.91-.8l-2.58,2.57L4.86,38.49l2.57-2.58A13.987,13.987,0,0,1,6.63,34H3V26H6.63a13.987,13.987,0,0,1,.8-1.91L4.86,21.51l4.45-4.45a16.432,16.432,0,0,0,2.97,17.49,7.161,7.161,0,0,1,.95-.59A7,7,0,1,0,19,23a6.541,6.541,0,0,0-1,.07V19.24a7.93,7.93,0,0,1-2-2.39V14h7v3.63a13.987,13.987,0,0,1,1.91.8l2.58-2.57,5.65,5.65-2.57,2.58a13.987,13.987,0,0,1,.8,1.91H35v8Z"/><path fill="#57b7eb" d="M21,33H41a8,8,0,0,1,8,8V61a0,0,0,0,1,0,0H13a0,0,0,0,1,0,0V41A8,8,0,0,1,21,33Z"/><path fill="#4891d3" d="M49,55v6H13V41a8,8,0,0,1,7-7.94V40A15.005,15.005,0,0,0,35,55Z"/><rect width="3" height="23" x="28" y="38" fill="#4891d3"/><path fill="#4891d3" d="M28,3h6A10,10,0,0,1,44,13v0a8,8,0,0,1-8,8H26a8,8,0,0,1-8-8v0A10,10,0,0,1,28,3Z"/><path fill="#2d72bc" d="M43.82,14.7A7.991,7.991,0,0,1,36,21H26a8,8,0,0,1-8-8,9.969,9.969,0,0,1,2.93-7.07,10.086,10.086,0,0,1,3.52-2.28A4.233,4.233,0,0,0,28.24,6a4.246,4.246,0,0,1,3,1.24l.99.99A6.055,6.055,0,0,0,36.51,10h.06a6.051,6.051,0,0,1,5.19,2.94A4.3,4.3,0,0,0,43.82,14.7Z"/><polygon fill="#fcbc04" points="36 34 31 38 26 34 26 29 36 29 36 34"/><path fill="#e59730" d="M36,31.13a9.926,9.926,0,0,1-4.83,2.63,9.944,9.944,0,0,0,3.67,1.17L31,38l-5-4V29H36Z"/><path fill="#f9e109" d="M31,32h0A10,10,0,0,1,21,22V16h0a6.919,6.919,0,0,1,5.94-6.849L28,9h0a10.3,10.3,0,0,0,8.831,5H41v8A10,10,0,0,1,31,32Z"/><polygon fill="#4891d3" points="40 33 34 44 31 38 36 34 36 33 40 33"/><polygon fill="#4891d3" points="22 33 24 44 31 38 26 34 26 33 22 33"/><path fill="#fcbc04" d="M24,13v6A10,10,0,0,0,34,29a9.807,9.807,0,0,0,5.41-1.61A9.992,9.992,0,0,1,21,22V16a6.89,6.89,0,0,1,1.69-4.53,6.964,6.964,0,0,1,4.25-2.32L28,9a10.224,10.224,0,0,0,3.76,3.66A10.292,10.292,0,0,0,36.83,14H41v2H36.83A10.3,10.3,0,0,1,28,11l-1.06.15a6.926,6.926,0,0,0-2.9,1.12C24.02,12.51,24,12.75,24,13Z"/><polygon fill="#84d2f4" points="40 33 36 42 31 38 36 34 36 33 40 33"/><polygon fill="#84d2f4" points="22 33 26 42 31 38 26 34 26 33 22 33"/><polygon fill="#f7f754" points="61 46.306 52.708 45.101 49 37.587 49 50 61 46.306"/><polygon fill="#fcbc04" points="37 46.306 43 52.154 41.584 60.413 49 50 37 46.306"/><polygon fill="#f9e109" points="61 46.306 49 50 56.416 60.413 55 52.154 61 46.306"/><polygon fill="#f9e109" points="49 37.587 45.292 45.101 37 46.306 49 50 49 37.587"/><polygon fill="#e59730" points="41.584 60.413 49 56.514 56.416 60.413 49 50 41.584 60.413"/><path fill="#c4f236" d="M49,16H59a0,0,0,0,1,0,0V30a0,0,0,0,1,0,0H49a2,2,0,0,1-2-2V18A2,2,0,0,1,49,16Z"/><path fill="#a1d51c" d="M59,27v3H49a2.006,2.006,0,0,1-2-2V18a2.006,2.006,0,0,1,2-2v3a8,8,0,0,0,8,8Z"/><path fill="#a1d51c" d="M54,21l-2-1-2,1V16h3a1,1,0,0,1,1,1Z"/><path fill="#f9e109" d="M55,20l-2-1-2,1V16a1,1,0,0,1,1-1h2a1,1,0,0,1,1,1Z"/><path fill="#fcbc04" d="M55,17.72V20l-2-1-2,1V16a1,1,0,0,1,1-1h.59v1.79a1.054,1.054,0,0,0,1.06,1.06,1.039,1.039,0,0,0,.47-.11A1.006,1.006,0,0,1,55,17.72Z"/><g><path fill="#323232" d="M12.382,19.139a1,1,0,0,0,1.163.182,11.929,11.929,0,0,1,1.763-.736A1,1,0,0,0,16,17.634V16a1,1,0,0,0-2,0v.928c-.235.091-.471.19-.7.295l-2.073-2.072a1,1,0,0,0-1.414,0L4.15,20.808a1,1,0,0,0,0,1.414l2.073,2.072c-.106.235-.2.471-.295.706H3a1,1,0,0,0-1,1v8a1,1,0,0,0,1,1H5.928c.091.235.189.471.295.706L4.15,37.778a1,1,0,0,0,0,1.414L8.362,43.4a1,1,0,0,0,1.414-1.414l-3.5-3.5,1.868-1.866a1,1,0,0,0,.182-1.163,11.762,11.762,0,0,1-.735-1.763A1,1,0,0,0,6.634,33H4V27H6.634a1,1,0,0,0,.952-.693,11.762,11.762,0,0,1,.735-1.763,1,1,0,0,0-.182-1.163L6.271,21.515l4.244-4.243Z"/><path fill="#323232" d="M36.914,42.406,40.65,34H41a6.9,6.9,0,0,1,4.324,1.521,1,1,0,1,0,1.242-1.566A8.874,8.874,0,0,0,41,32H37v-.792A11,11,0,0,0,42,22V19.684A8.945,8.945,0,0,0,45,13,11.013,11.013,0,0,0,34,2H28a10.979,10.979,0,0,0-7.3,2.788,1,1,0,0,0,1.33,1.494A8.983,8.983,0,0,1,28,4h6a9.01,9.01,0,0,1,9,9,6.932,6.932,0,0,1-1,3.581V14a1,1,0,0,0-1-1H36.831a9.347,9.347,0,0,1-7.974-4.515,1,1,0,0,0-1-.475l-1.06.152A7.956,7.956,0,0,0,20,16v.578A6.921,6.921,0,0,1,19,13a8.912,8.912,0,0,1,.853-3.8,1,1,0,0,0-1.813-.847A10.912,10.912,0,0,0,17,13a8.945,8.945,0,0,0,3,6.684V22a11,11,0,0,0,5,9.208V32H21a8.95,8.95,0,0,0-6.081,2.385,5.987,5.987,0,0,1,2.366-10.133,1,1,0,0,0-.57-1.917A7.989,7.989,0,0,0,13.6,35.891,8.936,8.936,0,0,0,12,41V61a1,1,0,0,0,2,0V41a7.008,7.008,0,0,1,7-7h.35l3.736,8.406a1,1,0,0,0,1.539.375L30,40.081V60a1,1,0,0,0,2,0V40.081l3.375,2.7a1,1,0,0,0,1.539-.375ZM22,22V16a5.948,5.948,0,0,1,5.081-5.859l.425-.06A11.362,11.362,0,0,0,36.831,15H40v7a9,9,0,0,1-18,0Zm9,11a10.927,10.927,0,0,0,4-.764V33.52l-4,3.2-4-3.2V32.236A10.927,10.927,0,0,0,31,33Zm-4.612,7.41L23.539,34H25a1,1,0,0,0,.375.781L29.4,38Zm9.224,0L32.6,38l4.024-3.219A1,1,0,0,0,37,34h1.461Z"/><path fill="#323232" d="M20,45a1,1,0,0,0-1,1V61a1,1,0,0,0,2,0V46A1,1,0,0,0,20,45Z"/><path fill="#323232" d="M24.293,18.293a1,1,0,0,0,1.414,1.414,1.831,1.831,0,0,1,2.586,0,1,1,0,0,0,1.414-1.414A3.832,3.832,0,0,0,24.293,18.293Z"/><path fill="#323232" d="M33.707,19.707a1.831,1.831,0,0,1,2.586,0,1,1,0,0,0,1.414-1.414,3.832,3.832,0,0,0-5.414,0,1,1,0,0,0,1.414,1.414Z"/><path fill="#323232" d="M39,11a1,1,0,0,0,0-2,8.6,8.6,0,0,1-6.122-2.537l-.172-.171a1,1,0,1,0-1.412,1.416l.171.17A10.581,10.581,0,0,0,39,11Z"/><path fill="#323232" d="M49,31H59a1,1,0,0,0,1-1V25a1,1,0,0,0-2,0v4H49a1,1,0,0,1-1-1V18a1,1,0,0,1,1-1h1v3a1,1,0,0,0,1.447.895L53,20.118l1.553.777A1,1,0,0,0,56,20V17h2v3.982a1,1,0,0,0,2,0V16a1,1,0,0,0-1-1H55.722A1.993,1.993,0,0,0,54,14H52a1.993,1.993,0,0,0-1.722,1H49a3,3,0,0,0-3,3V28A3,3,0,0,0,49,31Zm5-15v2.382l-.553-.277a1,1,0,0,0-.894,0L52,18.382V16Z"/><path fill="#323232" d="M51,24a1,1,0,0,0,0,2h3a1,1,0,0,0,0-2Z"/><path fill="#323232" d="M61.86,45.8a1,1,0,0,0-1.154-.445L50,48.646V41.873l1.812,3.67a1,1,0,1,0,1.792-.884L49.9,37.145a1.04,1.04,0,0,0-1.792,0l-3.476,7.042-7.772,1.129a1,1,0,0,0-.554,1.706L41.926,52.5,40.6,60.244A1,1,0,0,0,42.05,61.3L49,57.644,55.95,61.3A1,1,0,0,0,57.4,60.244L56.074,52.5,61.7,47.022A1,1,0,0,0,61.86,45.8Zm-16.424.3a1,1,0,0,0,.752-.548L48,41.873v6.773l-6.461-1.989Zm-4.773,2.388,6.719,2.069-4.073,5.718.676-3.943a1,1,0,0,0-.287-.885Zm7.871,7.149-3.7,1.947L49,51.724l4.167,5.851-3.7-1.947A1,1,0,0,0,48.534,55.628Zm5.768-4.19a1,1,0,0,0-.287.885l.676,3.943-4.073-5.718,6.719-2.069Z"/></g></g></svg>