<?xml version="1.0" encoding="UTF-8"?>
<svg xmlns="http://www.w3.org/2000/svg" xmlns:xlink="http://www.w3.org/1999/xlink" viewBox="0 0 64 64" width="64px" height="64px">
<g id="surface3535920">
<path style=" stroke:none;fill-rule:nonzero;fill:rgb(0%,0%,0%);fill-opacity:1;" d="M 17.503906 3.691406 C 17.1875 3.691406 16.875 3.8125 16.632812 4.050781 C 10.875 9.8125 10.875 19.179688 16.632812 24.941406 C 17.113281 25.421875 17.894531 25.421875 18.375 24.941406 C 18.855469 24.460938 18.855469 23.679688 18.375 23.199219 C 13.574219 18.398438 13.574219 10.59375 18.375 5.792969 C 18.855469 5.3125 18.855469 4.535156 18.375 4.050781 C 18.132812 3.8125 17.820312 3.691406 17.503906 3.691406 Z M 47.234375 3.691406 C 46.921875 3.691406 46.605469 3.8125 46.363281 4.054688 C 45.882812 4.535156 45.882812 5.3125 46.363281 5.792969 C 51.164062 10.59375 51.164062 18.398438 46.363281 23.199219 C 45.882812 23.679688 45.882812 24.460938 46.363281 24.941406 C 46.847656 25.421875 47.625 25.421875 48.105469 24.941406 C 53.863281 19.179688 53.863281 9.8125 48.105469 4.054688 C 47.867188 3.8125 47.550781 3.691406 47.234375 3.691406 Z M 32.464844 5.609375 C 30.089844 5.609375 28.160156 7.539062 28.160156 9.914062 L 28.160156 36.921875 L 13.660156 36.921875 C 11.597656 36.921875 9.914062 38.570312 9.847656 40.617188 L 7.753906 40.617188 C 5.515625 40.617188 3.691406 42.4375 3.691406 44.675781 L 3.691406 53.785156 C 3.691406 56.023438 5.515625 57.847656 7.753906 57.847656 L 9.90625 57.847656 C 9.519531 59.761719 10.992188 61.539062 12.921875 61.539062 L 17.847656 61.539062 C 19.777344 61.539062 21.25 59.761719 20.859375 57.847656 L 43.140625 57.847656 C 42.75 59.761719 44.222656 61.539062 46.152344 61.539062 L 51.078125 61.539062 C 53.007812 61.539062 54.480469 59.761719 54.09375 57.847656 L 56.246094 57.847656 C 58.484375 57.847656 60.308594 56.023438 60.308594 53.785156 L 60.308594 44.675781 C 60.308594 42.4375 58.484375 40.617188 56.246094 40.617188 L 54.152344 40.617188 C 54.085938 38.570312 52.402344 36.921875 50.339844 36.921875 L 36.773438 36.921875 L 36.773438 9.914062 C 36.773438 7.539062 34.839844 5.609375 32.464844 5.609375 Z M 20.984375 7.171875 C 20.667969 7.171875 20.355469 7.292969 20.113281 7.535156 C 16.277344 11.371094 16.277344 17.621094 20.113281 21.457031 C 20.59375 21.9375 21.375 21.9375 21.855469 21.457031 C 22.335938 20.976562 22.335938 20.199219 21.855469 19.71875 C 18.976562 16.839844 18.976562 12.152344 21.855469 9.273438 C 22.335938 8.792969 22.335938 8.015625 21.855469 7.535156 C 21.613281 7.292969 21.300781 7.171875 20.984375 7.171875 Z M 43.753906 7.171875 C 43.4375 7.171875 43.125 7.292969 42.882812 7.535156 C 42.402344 8.015625 42.402344 8.792969 42.882812 9.273438 C 45.761719 12.152344 45.761719 16.839844 42.882812 19.71875 C 42.402344 20.199219 42.402344 20.976562 42.882812 21.457031 C 43.363281 21.9375 44.144531 21.9375 44.625 21.457031 C 48.464844 17.621094 48.464844 11.371094 44.625 7.535156 C 44.382812 7.292969 44.070312 7.171875 43.753906 7.171875 Z M 32.464844 8.070312 C 33.484375 8.070312 34.3125 8.898438 34.3125 9.914062 L 34.3125 12.992188 L 30.621094 12.992188 L 30.621094 9.914062 C 30.621094 8.898438 31.449219 8.070312 32.464844 8.070312 Z M 6.152344 9.847656 C 5.472656 9.847656 4.921875 10.398438 4.921875 11.078125 C 4.921875 11.757812 5.472656 12.308594 6.152344 12.308594 C 6.832031 12.308594 7.382812 11.757812 7.382812 11.078125 C 7.382812 10.398438 6.832031 9.847656 6.152344 9.847656 Z M 24.464844 10.65625 C 24.152344 10.65625 23.835938 10.773438 23.59375 11.015625 C 21.675781 12.933594 21.675781 16.058594 23.59375 17.976562 C 24.074219 18.457031 24.855469 18.457031 25.335938 17.976562 C 25.816406 17.496094 25.816406 16.71875 25.335938 16.238281 C 24.375 15.277344 24.375 13.714844 25.335938 12.753906 C 25.816406 12.273438 25.816406 11.496094 25.335938 11.015625 C 25.097656 10.773438 24.78125 10.65625 24.464844 10.65625 Z M 40.273438 10.65625 C 39.957031 10.65625 39.644531 10.773438 39.402344 11.015625 C 38.921875 11.496094 38.921875 12.273438 39.402344 12.753906 C 40.363281 13.714844 40.363281 15.277344 39.402344 16.238281 C 38.921875 16.71875 38.921875 17.496094 39.402344 17.976562 C 39.882812 18.457031 40.664062 18.457031 41.144531 17.976562 C 43.0625 16.058594 43.0625 12.933594 41.144531 11.015625 C 40.902344 10.773438 40.589844 10.65625 40.273438 10.65625 Z M 30.621094 15.453125 L 34.3125 15.453125 L 34.3125 36.921875 L 30.621094 36.921875 Z M 55.382812 17.230469 C 54.703125 17.230469 54.152344 17.78125 54.152344 18.460938 C 54.152344 19.140625 54.703125 19.691406 55.382812 19.691406 C 56.0625 19.691406 56.617188 19.140625 56.617188 18.460938 C 56.617188 17.78125 56.0625 17.230469 55.382812 17.230469 Z M 56 23.382812 C 53.625 23.382812 51.691406 25.316406 51.691406 27.691406 C 51.691406 30.066406 53.625 32 56 32 C 58.375 32 60.308594 30.066406 60.308594 27.691406 C 60.308594 25.316406 58.375 23.382812 56 23.382812 Z M 56 25.847656 C 57.019531 25.847656 57.847656 26.675781 57.847656 27.691406 C 57.847656 28.710938 57.019531 29.539062 56 29.539062 C 54.980469 29.539062 54.152344 28.710938 54.152344 27.691406 C 54.152344 26.675781 54.980469 25.847656 56 25.847656 Z M 40.617188 27.078125 C 39.9375 27.078125 39.382812 27.628906 39.382812 28.308594 C 39.382812 28.988281 39.9375 29.539062 40.617188 29.539062 C 41.296875 29.539062 41.847656 28.988281 41.847656 28.308594 C 41.847656 27.628906 41.296875 27.078125 40.617188 27.078125 Z M 8.617188 28.308594 C 6.578125 28.308594 4.921875 29.964844 4.921875 32 C 4.921875 34.035156 6.578125 35.691406 8.617188 35.691406 C 10.652344 35.691406 12.308594 34.035156 12.308594 32 C 12.308594 29.964844 10.652344 28.308594 8.617188 28.308594 Z M 22.152344 28.308594 C 21.472656 28.308594 20.921875 28.859375 20.921875 29.539062 C 20.921875 30.21875 21.472656 30.769531 22.152344 30.769531 C 22.832031 30.769531 23.382812 30.21875 23.382812 29.539062 C 23.382812 28.859375 22.832031 28.308594 22.152344 28.308594 Z M 48 29.539062 C 47.320312 29.539062 46.769531 30.089844 46.769531 30.769531 C 46.769531 31.449219 47.320312 32 48 32 C 48.679688 32 49.230469 31.449219 49.230469 30.769531 C 49.230469 30.089844 48.679688 29.539062 48 29.539062 Z M 8.617188 30.769531 C 9.292969 30.769531 9.847656 31.320312 9.847656 32 C 9.847656 32.679688 9.292969 33.230469 8.617188 33.230469 C 7.9375 33.230469 7.382812 32.679688 7.382812 32 C 7.382812 31.320312 7.9375 30.769531 8.617188 30.769531 Z M 13.660156 39.382812 L 50.339844 39.382812 C 51.042969 39.382812 51.625 39.925781 51.6875 40.617188 L 12.3125 40.617188 C 12.375 39.925781 12.957031 39.382812 13.660156 39.382812 Z M 7.753906 43.078125 L 56.246094 43.078125 C 57.128906 43.078125 57.847656 43.792969 57.847656 44.675781 L 57.847656 53.785156 C 57.847656 54.667969 57.128906 55.382812 56.246094 55.382812 L 7.753906 55.382812 C 6.871094 55.382812 6.152344 54.667969 6.152344 53.785156 L 6.152344 44.675781 C 6.152344 43.792969 6.871094 43.078125 7.753906 43.078125 Z M 9.847656 45.539062 C 9.167969 45.539062 8.617188 46.089844 8.617188 46.769531 C 8.617188 47.449219 9.167969 48 9.847656 48 L 17.230469 48 C 17.910156 48 18.460938 47.449219 18.460938 46.769531 C 18.460938 46.089844 17.910156 45.539062 17.230469 45.539062 Z M 20.921875 45.539062 C 20.242188 45.539062 19.691406 46.089844 19.691406 46.769531 C 19.691406 47.449219 20.242188 48 20.921875 48 C 21.601562 48 22.152344 47.449219 22.152344 46.769531 C 22.152344 46.089844 21.601562 45.539062 20.921875 45.539062 Z M 34.460938 45.539062 C 32.425781 45.539062 30.769531 47.195312 30.769531 49.230469 C 30.769531 51.265625 32.425781 52.921875 34.460938 52.921875 C 36.496094 52.921875 38.152344 51.265625 38.152344 49.230469 C 38.152344 47.195312 36.496094 45.539062 34.460938 45.539062 Z M 43.078125 45.539062 C 41.039062 45.539062 39.382812 47.195312 39.382812 49.230469 C 39.382812 51.265625 41.039062 52.921875 43.078125 52.921875 C 45.113281 52.921875 46.769531 51.265625 46.769531 49.230469 C 46.769531 47.195312 45.113281 45.539062 43.078125 45.539062 Z M 51.691406 45.539062 C 49.65625 45.539062 48 47.195312 48 49.230469 C 48 51.265625 49.65625 52.921875 51.691406 52.921875 C 53.726562 52.921875 55.382812 51.265625 55.382812 49.230469 C 55.382812 47.195312 53.726562 45.539062 51.691406 45.539062 Z M 34.460938 48 C 35.140625 48 35.691406 48.550781 35.691406 49.230469 C 35.691406 49.910156 35.140625 50.460938 34.460938 50.460938 C 33.78125 50.460938 33.230469 49.910156 33.230469 49.230469 C 33.230469 48.550781 33.78125 48 34.460938 48 Z M 43.078125 48 C 43.753906 48 44.308594 48.550781 44.308594 49.230469 C 44.308594 49.910156 43.753906 50.460938 43.078125 50.460938 C 42.398438 50.460938 41.847656 49.910156 41.847656 49.230469 C 41.847656 48.550781 42.398438 48 43.078125 48 Z M 51.691406 48 C 52.371094 48 52.921875 48.550781 52.921875 49.230469 C 52.921875 49.910156 52.371094 50.460938 51.691406 50.460938 C 51.011719 50.460938 50.460938 49.910156 50.460938 49.230469 C 50.460938 48.550781 51.011719 48 51.691406 48 Z M 9.847656 49.230469 C 9.167969 49.230469 8.617188 49.78125 8.617188 50.460938 C 8.617188 51.140625 9.167969 51.691406 9.847656 51.691406 L 24.617188 51.691406 C 25.296875 51.691406 25.847656 51.140625 25.847656 50.460938 C 25.847656 49.78125 25.296875 49.230469 24.617188 49.230469 Z M 12.921875 57.847656 L 17.847656 57.847656 C 18.183594 57.847656 18.460938 58.121094 18.460938 58.460938 C 18.460938 58.800781 18.183594 59.078125 17.847656 59.078125 L 12.921875 59.078125 C 12.582031 59.078125 12.308594 58.800781 12.308594 58.460938 C 12.308594 58.121094 12.582031 57.847656 12.921875 57.847656 Z M 46.152344 57.847656 L 51.078125 57.847656 C 51.417969 57.847656 51.691406 58.121094 51.691406 58.460938 C 51.691406 58.800781 51.417969 59.078125 51.078125 59.078125 L 46.152344 59.078125 C 45.816406 59.078125 45.539062 58.800781 45.539062 58.460938 C 45.539062 58.121094 45.816406 57.847656 46.152344 57.847656 Z M 46.152344 57.847656 "/>
</g>
</svg>
