<?xml version="1.0" encoding="UTF-8"?>
<svg xmlns="http://www.w3.org/2000/svg" xmlns:xlink="http://www.w3.org/1999/xlink" viewBox="0 0 64 64" width="64px" height="64px">
<g id="surface1057413">
<path style=" stroke:none;fill-rule:nonzero;fill:rgb(51.764709%,82.352942%,95.686275%);fill-opacity:1;" d="M 3 39 L 37 39 L 37 61 L 3 61 Z M 3 39 "/>
<path style=" stroke:none;fill-rule:nonzero;fill:rgb(34.117648%,71.764708%,92.156863%);fill-opacity:1;" d="M 24 54 C 15.554688 53.996094 8.570312 47.425781 8.050781 39 L 7 39 C 4.789062 39 3 40.789062 3 43 L 3 57 C 3 59.210938 4.789062 61 7 61 L 33 61 C 35.210938 61 37 59.210938 37 57 L 37 54 Z M 24 54 "/>
<path style=" stroke:none;fill-rule:nonzero;fill:rgb(57.647061%,60.000002%,60.392159%);fill-opacity:1;" d="M 32.269531 18.339844 L 35.730469 16.339844 L 40.730469 25 C 41.285156 25.957031 40.957031 27.179688 40 27.730469 C 39.042969 28.285156 37.820312 27.957031 37.269531 27 Z M 32.269531 18.339844 "/>
<path style=" stroke:none;fill-rule:nonzero;fill:rgb(39.607844%,41.960785%,46.27451%);fill-opacity:1;" d="M 39.582031 23.007812 L 38.882812 23.007812 C 37.441406 23.023438 36.101562 22.257812 35.382812 21.007812 C 35.046875 20.429688 35.246094 19.683594 35.828125 19.351562 L 37.054688 18.640625 L 35.726562 16.335938 L 32.261719 18.335938 L 37.261719 26.996094 C 37.527344 27.457031 37.964844 27.792969 38.476562 27.933594 C 38.992188 28.070312 39.539062 28 40 27.730469 C 40.957031 27.179688 41.285156 25.957031 40.730469 25 Z M 39.582031 23.007812 "/>
<path style=" stroke:none;fill-rule:nonzero;fill:rgb(98.823529%,73.725492%,1.568628%);fill-opacity:1;" d="M 20.214844 18.867188 L 41 6.867188 L 44 12.0625 L 23.214844 24.0625 Z M 20.214844 18.867188 "/>
<path style=" stroke:none;fill-rule:nonzero;fill:rgb(89.803922%,59.215689%,18.82353%);fill-opacity:1;" d="M 25.878906 20.679688 C 25.640625 20.820312 25.347656 20.824219 25.105469 20.6875 C 24.863281 20.550781 24.714844 20.292969 24.71875 20.015625 C 24.71875 19.738281 24.871094 19.484375 25.113281 19.347656 L 42.433594 9.347656 L 41 6.867188 L 20.214844 18.867188 L 23.214844 24.066406 L 44 12.0625 L 43.199219 10.679688 Z M 25.878906 20.679688 "/>
<path style=" stroke:none;fill-rule:nonzero;fill:rgb(81.568629%,84.705883%,85.490197%);fill-opacity:1;" d="M 39 24 L 51 24 L 51 28 L 39 28 C 37.894531 28 37 27.105469 37 26 C 37 24.894531 37.894531 24 39 24 Z M 39 24 "/>
<path style=" stroke:none;fill-rule:nonzero;fill:rgb(81.568629%,84.705883%,85.490197%);fill-opacity:1;" d="M 13.152344 20.636719 L 19.214844 17.136719 L 21.714844 21.464844 L 15.652344 24.964844 Z M 13.152344 20.636719 "/>
<path style=" stroke:none;fill-rule:nonzero;fill:rgb(57.647061%,60.000002%,60.392159%);fill-opacity:1;" d="M 19.214844 17.136719 L 13.378906 20.507812 C 14.753906 20.882812 16.207031 20.882812 17.585938 20.507812 L 19.03125 23.015625 L 21.714844 21.464844 Z M 19.214844 17.136719 "/>
<path style=" stroke:none;fill-rule:nonzero;fill:rgb(97.647059%,88.235295%,3.529412%);fill-opacity:1;" d="M 11.519531 15.804688 L 32.304688 3.804688 C 35.171875 2.148438 38.84375 3.132812 40.5 6 L 41.5 7.734375 L 22.449219 18.734375 C 18.621094 20.941406 13.726562 19.632812 11.519531 15.804688 Z M 11.519531 15.804688 "/>
<path style=" stroke:none;fill-rule:nonzero;fill:rgb(57.647061%,60.000002%,60.392159%);fill-opacity:1;" d="M 45.140625 26 L 41 26 C 39.894531 26 39 25.105469 39 24 C 37.894531 24 37 24.894531 37 26 C 37 27.105469 37.894531 28 39 28 L 51 28 L 51 24 L 46.382812 24 C 45.777344 24.527344 45.347656 25.222656 45.140625 26 Z M 45.140625 26 "/>
<path style=" stroke:none;fill-rule:nonzero;fill:rgb(97.647059%,88.235295%,3.529412%);fill-opacity:1;" d="M 58 17 L 61 17 L 61 35 L 58 35 C 56.34375 35 55 33.65625 55 32 L 55 20 C 55 18.34375 56.34375 17 58 17 Z M 58 17 "/>
<path style=" stroke:none;fill-rule:nonzero;fill:rgb(98.823529%,73.725492%,1.568628%);fill-opacity:1;" d="M 51 22 L 55 22 L 55 30 L 51 30 C 48.789062 30 47 28.210938 47 26 C 47 23.789062 48.789062 22 51 22 Z M 51 22 "/>
<path style=" stroke:none;fill-rule:nonzero;fill:rgb(98.823529%,73.725492%,1.568628%);fill-opacity:1;" d="M 58 28 L 58 17 C 56.34375 17 55 18.34375 55 20 L 55 32 C 55 33.65625 56.34375 35 58 35 L 61 35 L 61 31.859375 C 59.238281 31.40625 58.003906 29.820312 58 28 Z M 58 28 "/>
<path style=" stroke:none;fill-rule:nonzero;fill:rgb(89.803922%,59.215689%,18.82353%);fill-opacity:1;" d="M 53 22 L 53 23 C 53 25.210938 51.210938 27 49 27 L 47.140625 27 C 47.59375 28.761719 49.179688 29.996094 51 30 L 55 30 L 55 22 Z M 53 22 "/>
<path style=" stroke:none;fill-rule:nonzero;fill:rgb(98.823529%,73.725492%,1.568628%);fill-opacity:1;" d="M 39.945312 5.207031 L 23.445312 14.734375 C 20.609375 16.367188 17.066406 16.109375 14.496094 14.085938 L 11.515625 15.804688 C 13.726562 19.632812 18.617188 20.941406 22.445312 18.734375 L 41.496094 7.734375 L 40.5 6 C 40.335938 5.722656 40.152344 5.457031 39.945312 5.207031 Z M 39.945312 5.207031 "/>
<path style=" stroke:none;fill-rule:nonzero;fill:rgb(81.568629%,84.705883%,85.490197%);fill-opacity:1;" d="M 15 49 L 25 49 L 25 57 L 15 57 Z M 15 49 "/>
<path style=" stroke:none;fill-rule:nonzero;fill:rgb(97.647059%,88.235295%,3.529412%);fill-opacity:1;" d="M 27 49 L 13 49 L 20 43 Z M 27 49 "/>
<path style=" stroke:none;fill-rule:nonzero;fill:rgb(98.823529%,73.725492%,1.568628%);fill-opacity:1;" d="M 15.332031 49 L 24.667969 49 L 20 45 Z M 15.332031 49 "/>
<path style=" stroke:none;fill-rule:nonzero;fill:rgb(57.647061%,60.000002%,60.392159%);fill-opacity:1;" d="M 22 55 C 19.789062 55 18 53.210938 18 51 L 25 51 L 25 49 L 15 49 L 15 57 L 25 57 L 25 55 Z M 22 55 "/>
<path style=" stroke:none;fill-rule:nonzero;fill:rgb(57.647061%,60.000002%,60.392159%);fill-opacity:1;" d="M 24 54 C 20.785156 54 17.648438 53.027344 15 51.207031 L 15 57 L 25 57 L 25 54 Z M 24 54 "/>
<path style=" stroke:none;fill-rule:nonzero;fill:rgb(39.607844%,41.960785%,46.27451%);fill-opacity:1;" d="M 18.574219 53.035156 C 17.3125 52.582031 16.109375 51.964844 15 51.207031 L 15 57 L 25 57 L 25 55 L 22 55 C 20.589844 54.996094 19.289062 54.25 18.574219 53.035156 Z M 18.574219 53.035156 "/>
<path style=" stroke:none;fill-rule:nonzero;fill:rgb(19.607843%,19.607843%,19.607843%);fill-opacity:1;" d="M 61 34 L 58 34 C 56.894531 34 56 33.105469 56 32 L 56 20 C 56 18.894531 56.894531 18 58 18 L 61 18 C 61.550781 18 62 17.550781 62 17 C 62 16.449219 61.550781 16 61 16 L 58 16 C 55.789062 16 54 17.789062 54 20 L 54 21 L 51 21 C 49.433594 21.003906 47.960938 21.746094 47.027344 23 L 39 23 C 38.121094 23.003906 37.292969 23.390625 36.726562 24.0625 L 33.851562 19.078125 L 35.582031 18.078125 L 37.261719 20.984375 C 37.4375 21.296875 37.769531 21.492188 38.128906 21.492188 C 38.484375 21.492188 38.816406 21.300781 38.996094 20.988281 C 39.175781 20.679688 39.171875 20.296875 38.992188 19.984375 L 37.3125 17.078125 L 44.5 12.929688 C 44.976562 12.652344 45.140625 12.042969 44.867188 11.5625 L 42.367188 7.234375 L 41.367188 5.5 C 39.429688 2.15625 35.148438 1.007812 31.800781 2.9375 L 21.941406 8.632812 C 21.46875 8.910156 21.308594 9.519531 21.582031 9.996094 C 21.855469 10.472656 22.464844 10.636719 22.941406 10.363281 L 32.800781 4.671875 C 35.191406 3.292969 38.246094 4.113281 39.628906 6.5 L 40.128906 7.367188 L 21.941406 17.867188 C 18.929688 19.605469 15.097656 18.871094 12.941406 16.136719 L 19.476562 12.363281 C 19.789062 12.1875 19.980469 11.855469 19.980469 11.496094 C 19.984375 11.136719 19.789062 10.804688 19.480469 10.628906 C 19.167969 10.449219 18.785156 10.449219 18.476562 10.632812 L 11.019531 14.9375 C 10.789062 15.070312 10.621094 15.289062 10.554688 15.546875 C 10.484375 15.800781 10.519531 16.074219 10.652344 16.304688 C 11.347656 17.507812 12.3125 18.535156 13.46875 19.300781 L 12.652344 19.773438 C 12.175781 20.046875 12.011719 20.660156 12.285156 21.136719 L 14.785156 25.46875 C 15.0625 25.945312 15.675781 26.109375 16.152344 25.835938 L 21.351562 22.835938 L 22.351562 24.566406 C 22.628906 25.042969 23.242188 25.207031 23.71875 24.933594 L 32.117188 20.082031 L 36.398438 27.5 L 36.410156 27.492188 C 36.941406 28.421875 37.929688 28.996094 39 29 L 47.027344 29 C 47.960938 30.253906 49.433594 30.996094 51 31 L 54 31 L 54 32 C 54 34.210938 55.789062 36 58 36 L 61 36 C 61.550781 36 62 35.550781 62 35 C 62 34.449219 61.550781 34 61 34 Z M 16.019531 23.601562 L 14.519531 21 L 15.652344 20.347656 C 15.804688 20.398438 15.960938 20.453125 16.117188 20.496094 C 16.882812 20.703125 17.671875 20.808594 18.460938 20.808594 C 19.007812 20.800781 19.550781 20.746094 20.085938 20.640625 L 20.347656 21.097656 Z M 23.582031 22.699219 L 22.582031 20.96875 L 22.050781 20.050781 C 22.355469 19.917969 22.65625 19.769531 22.949219 19.605469 L 41.132812 9.101562 L 42.632812 11.699219 Z M 39 27 C 38.449219 27 38 26.550781 38 26 C 38 25.449219 38.449219 25 39 25 L 46.101562 25 C 45.964844 25.660156 45.964844 26.339844 46.101562 27 Z M 51 29 C 49.34375 29 48 27.65625 48 26 C 48 24.34375 49.34375 23 51 23 L 54 23 L 54 29 Z M 51 29 "/>
<path style=" stroke:none;fill-rule:nonzero;fill:rgb(19.607843%,19.607843%,19.607843%);fill-opacity:1;" d="M 19.582031 15.769531 C 19.855469 16.246094 20.46875 16.410156 20.945312 16.136719 L 33.9375 8.636719 C 34.25 8.457031 34.441406 8.125 34.441406 7.769531 C 34.445312 7.410156 34.253906 7.078125 33.941406 6.898438 C 33.628906 6.71875 33.246094 6.722656 32.9375 6.902344 L 19.945312 14.402344 C 19.46875 14.679688 19.304688 15.289062 19.582031 15.769531 Z M 19.582031 15.769531 "/>
<path style=" stroke:none;fill-rule:nonzero;fill:rgb(19.607843%,19.607843%,19.607843%);fill-opacity:1;" d="M 52 26 C 52 26.550781 51.550781 27 51 27 C 50.449219 27 50 26.550781 50 26 C 50 25.449219 50.449219 25 51 25 C 51.550781 25 52 25.449219 52 26 Z M 52 26 "/>
<path style=" stroke:none;fill-rule:nonzero;fill:rgb(19.607843%,19.607843%,19.607843%);fill-opacity:1;" d="M 42.171875 40.171875 C 41.792969 40.5625 41.796875 41.1875 42.183594 41.574219 C 42.570312 41.960938 43.195312 41.964844 43.585938 41.585938 C 44.378906 40.832031 45.621094 40.832031 46.414062 41.585938 C 46.804688 41.964844 47.429688 41.960938 47.816406 41.574219 C 48.203125 41.1875 48.207031 40.5625 47.828125 40.171875 C 46.246094 38.660156 43.753906 38.660156 42.171875 40.171875 Z M 42.171875 40.171875 "/>
<path style=" stroke:none;fill-rule:nonzero;fill:rgb(19.607843%,19.607843%,19.607843%);fill-opacity:1;" d="M 39.34375 37.34375 C 38.964844 37.734375 38.96875 38.359375 39.355469 38.746094 C 39.742188 39.128906 40.363281 39.136719 40.757812 38.757812 C 43.101562 36.417969 46.898438 36.417969 49.242188 38.757812 C 49.636719 39.136719 50.257812 39.128906 50.644531 38.746094 C 51.03125 38.359375 51.035156 37.734375 50.65625 37.34375 C 47.53125 34.222656 42.46875 34.222656 39.34375 37.34375 Z M 39.34375 37.34375 "/>
<path style=" stroke:none;fill-rule:nonzero;fill:rgb(19.607843%,19.607843%,19.607843%);fill-opacity:1;" d="M 46 44 C 46 44.550781 45.550781 45 45 45 C 44.449219 45 44 44.550781 44 44 C 44 43.449219 44.449219 43 45 43 C 45.550781 43 46 43.449219 46 44 Z M 46 44 "/>
<path style=" stroke:none;fill-rule:nonzero;fill:rgb(19.607843%,19.607843%,19.607843%);fill-opacity:1;" d="M 33 38 L 7 38 C 4.238281 38.003906 2.003906 40.238281 2 43 L 2 57 C 2.003906 59.761719 4.238281 61.996094 7 62 L 23 62 C 23.550781 62 24 61.550781 24 61 C 24 60.449219 23.550781 60 23 60 L 7 60 C 5.34375 60 4 58.65625 4 57 L 4 43 C 4 41.34375 5.34375 40 7 40 L 33 40 C 34.65625 40 36 41.34375 36 43 L 36 57 C 36 58.65625 34.65625 60 33 60 L 27 60 C 26.449219 60 26 60.449219 26 61 C 26 61.550781 26.449219 62 27 62 L 33 62 C 35.761719 61.996094 37.996094 59.761719 38 57 L 38 43 C 37.996094 40.238281 35.761719 38.003906 33 38 Z M 33 38 "/>
<path style=" stroke:none;fill-rule:nonzero;fill:rgb(19.607843%,19.607843%,19.607843%);fill-opacity:1;" d="M 34 53 L 34 47 C 34 46.449219 33.550781 46 33 46 C 32.449219 46 32 46.449219 32 47 L 32 53 C 32 53.550781 32.449219 54 33 54 C 33.550781 54 34 53.550781 34 53 Z M 34 53 "/>
<path style=" stroke:none;fill-rule:nonzero;fill:rgb(19.607843%,19.607843%,19.607843%);fill-opacity:1;" d="M 8 43 C 8 43.550781 7.550781 44 7 44 C 6.449219 44 6 43.550781 6 43 C 6 42.449219 6.449219 42 7 42 C 7.550781 42 8 42.449219 8 43 Z M 8 43 "/>
<path style=" stroke:none;fill-rule:nonzero;fill:rgb(19.607843%,19.607843%,19.607843%);fill-opacity:1;" d="M 8 47 C 8 47.550781 7.550781 48 7 48 C 6.449219 48 6 47.550781 6 47 C 6 46.449219 6.449219 46 7 46 C 7.550781 46 8 46.449219 8 47 Z M 8 47 "/>
<path style=" stroke:none;fill-rule:nonzero;fill:rgb(19.607843%,19.607843%,19.607843%);fill-opacity:1;" d="M 26 50 L 27 50 C 27.417969 50 27.792969 49.738281 27.9375 49.347656 C 28.082031 48.953125 27.96875 48.511719 27.648438 48.242188 L 20.648438 42.242188 C 20.277344 41.921875 19.722656 41.921875 19.351562 42.242188 L 12.351562 48.242188 C 12.03125 48.511719 11.917969 48.953125 12.0625 49.347656 C 12.207031 49.738281 12.582031 50 13 50 L 24 50 L 24 56 L 16 56 L 16 53 C 16 52.449219 15.550781 52 15 52 C 14.449219 52 14 52.449219 14 53 L 14 57 C 14 57.550781 14.449219 58 15 58 L 25 58 C 25.550781 58 26 57.550781 26 57 Z M 20 44.316406 L 24.300781 48 L 15.699219 48 Z M 20 44.316406 "/>
<path style=" stroke:none;fill-rule:nonzero;fill:rgb(19.607843%,19.607843%,19.607843%);fill-opacity:1;" d="M 22.828125 29.828125 C 23.207031 29.4375 23.203125 28.8125 22.816406 28.425781 C 22.429688 28.039062 21.804688 28.035156 21.414062 28.414062 C 20.621094 29.167969 19.378906 29.167969 18.585938 28.414062 C 18.195312 28.035156 17.570312 28.039062 17.183594 28.425781 C 16.796875 28.8125 16.792969 29.4375 17.171875 29.828125 C 18.734375 31.390625 21.265625 31.390625 22.828125 29.828125 Z M 22.828125 29.828125 "/>
<path style=" stroke:none;fill-rule:nonzero;fill:rgb(19.607843%,19.607843%,19.607843%);fill-opacity:1;" d="M 14.34375 31.242188 C 13.953125 31.632812 13.953125 32.265625 14.34375 32.65625 C 17.46875 35.777344 22.53125 35.777344 25.65625 32.65625 C 25.917969 32.40625 26.019531 32.035156 25.929688 31.683594 C 25.839844 31.335938 25.566406 31.0625 25.214844 30.96875 C 24.867188 30.878906 24.492188 30.984375 24.242188 31.242188 C 21.898438 33.582031 18.101562 33.582031 15.757812 31.242188 C 15.367188 30.851562 14.734375 30.851562 14.34375 31.242188 Z M 14.34375 31.242188 "/>
<path style=" stroke:none;fill-rule:nonzero;fill:rgb(19.607843%,19.607843%,19.607843%);fill-opacity:1;" d="M 45 47 C 44.449219 47 44 47.449219 44 48 L 44 51 L 41 51 C 40.449219 51 40 51.449219 40 52 C 40 52.550781 40.449219 53 41 53 L 45 53 C 45.550781 53 46 52.550781 46 52 L 46 48 C 46 47.449219 45.550781 47 45 47 Z M 45 47 "/>
</g>
</svg>
