<?xml version="1.0" encoding="UTF-8"?>
<svg xmlns="http://www.w3.org/2000/svg" xmlns:xlink="http://www.w3.org/1999/xlink" viewBox="0 0 64 64" width="64px" height="64px">
<g id="surface32946837">
<path style=" stroke:none;fill-rule:nonzero;fill:rgb(20.392157%,59.607846%,85.882354%);fill-opacity:1;" d="M 1 43 L 63 43 L 63 47 L 1 47 Z M 1 43 "/>
<path style=" stroke:none;fill-rule:nonzero;fill:rgb(91.764706%,67.450982%,27.843139%);fill-opacity:1;" d="M 4 45 C 4 43.894531 4.894531 43 6 43 L 3 43 C 1.894531 43 1 43.894531 1 45 C 1 46.105469 1.894531 47 3 47 L 6 47 C 4.894531 47 4 46.105469 4 45 Z M 4 45 "/>
<path style=" stroke:none;fill-rule:nonzero;fill:rgb(90.196079%,90.196079%,90.196079%);fill-opacity:1;" d="M 5 47 L 59 47 L 59 55 L 5 55 Z M 5 47 "/>
<path style=" stroke:none;fill-rule:nonzero;fill:rgb(80.784315%,80.784315%,80.784315%);fill-opacity:1;" d="M 59 47 L 5 47 L 5 55 L 8 55 L 8 54 C 8 51.789062 9.789062 50 12 50 L 59 50 Z M 59 47 "/>
<path style=" stroke:none;fill-rule:nonzero;fill:rgb(47.843137%,51.372552%,54.509807%);fill-opacity:1;" d="M 49 25 L 61 25 L 61 41 C 61 42.105469 60.105469 43 59 43 L 51 43 C 49.894531 43 49 42.105469 49 41 Z M 49 25 "/>
<path style=" stroke:none;fill-rule:nonzero;fill:rgb(36.470589%,41.176471%,44.705883%);fill-opacity:1;" d="M 61 40 C 56.03125 40 52 35.96875 52 31 L 52 25 L 49 25 L 49 41 C 49 42.105469 49.894531 43 51 43 L 59 43 C 60.105469 43 61 42.105469 61 41 Z M 61 40 "/>
<path style=" stroke:none;fill-rule:nonzero;fill:rgb(47.843137%,51.372552%,54.509807%);fill-opacity:1;" d="M 51 17 L 59 17 C 60.105469 17 61 17.894531 61 19 L 61 21 L 49 21 L 49 19 C 49 17.894531 49.894531 17 51 17 Z M 51 17 "/>
<path style=" stroke:none;fill-rule:nonzero;fill:rgb(36.470589%,41.176471%,44.705883%);fill-opacity:1;" d="M 54 17 L 51 17 C 49.894531 17 49 17.894531 49 19 L 49 21 L 52 21 L 52 19 C 52 17.894531 52.894531 17 54 17 Z M 54 17 "/>
<path style=" stroke:none;fill-rule:nonzero;fill:rgb(90.196079%,90.196079%,90.196079%);fill-opacity:1;" d="M 49 21 L 61 21 L 61 25 L 49 25 Z M 49 21 "/>
<path style=" stroke:none;fill-rule:nonzero;fill:rgb(80.784315%,80.784315%,80.784315%);fill-opacity:1;" d="M 49 21 L 52 21 L 52 25 L 49 25 Z M 49 21 "/>
<path style=" stroke:none;fill-rule:nonzero;fill:rgb(59.607846%,87.058824%,91.764706%);fill-opacity:1;" d="M 3 9 L 45 9 L 45 35 L 3 35 Z M 3 9 "/>
<path style=" stroke:none;fill-rule:nonzero;fill:rgb(50.980395%,81.568629%,84.705883%);fill-opacity:1;" d="M 28 32 C 15.851562 32 6 22.148438 6 10 L 6 9 L 5 9 C 3.894531 9 3 9.894531 3 11 L 3 33 C 3 34.105469 3.894531 35 5 35 L 43 35 C 44.105469 35 45 34.105469 45 33 L 45 32 Z M 28 32 "/>
<path style=" stroke:none;fill-rule:nonzero;fill:rgb(47.843137%,51.372552%,54.509807%);fill-opacity:1;" d="M 29 43 L 19 43 L 21 35 L 27 35 Z M 29 43 "/>
<path style=" stroke:none;fill-rule:nonzero;fill:rgb(36.470589%,41.176471%,44.705883%);fill-opacity:1;" d="M 28.25 40 L 24.28125 40 C 23.972656 40 23.683594 39.859375 23.492188 39.613281 C 23.304688 39.371094 23.234375 39.054688 23.3125 38.757812 C 23.421875 38.3125 23.824219 38 24.28125 38 L 27.75 38 L 27 35 L 21 35 L 19 43 L 29 43 Z M 28.25 40 "/>
<path style=" stroke:none;fill-rule:nonzero;fill:rgb(47.843137%,51.372552%,54.509807%);fill-opacity:1;" d="M 39 39 L 41 39 C 42.105469 39 43 39.894531 43 41 L 43 43 L 37 43 L 37 41 C 37 39.894531 37.894531 39 39 39 Z M 39 39 "/>
<path style=" stroke:none;fill-rule:nonzero;fill:rgb(0%,0%,0%);fill-opacity:1;" d="M 61.78125 42.117188 C 61.925781 41.761719 62 41.382812 62 41 L 62 19 C 62 17.34375 60.65625 16 59 16 L 51 16 C 49.34375 16 48 17.34375 48 19 L 48 41 C 48.003906 41.339844 48.066406 41.679688 48.183594 42 L 44 42 L 44 41 C 44 39.34375 42.65625 38 41 38 L 39 38 C 37.34375 38 36 39.34375 36 41 L 36 42 L 29.78125 42 L 28.28125 36 L 43 36 C 44.65625 36 46 34.65625 46 33 L 46 17 C 46 16.449219 45.550781 16 45 16 C 44.449219 16 44 16.449219 44 17 L 44 33 C 44 33.550781 43.550781 34 43 34 L 5 34 C 4.449219 34 4 33.550781 4 33 L 4 11 C 4 10.449219 4.449219 10 5 10 L 43 10 C 43.550781 10 44 10.449219 44 11 L 44 13 C 44 13.550781 44.449219 14 45 14 C 45.550781 14 46 13.550781 46 13 L 46 11 C 46 9.34375 44.65625 8 43 8 L 5 8 C 3.34375 8 2 9.34375 2 11 L 2 33 C 2 34.65625 3.34375 36 5 36 L 19.71875 36 L 18.21875 42 L 3 42 C 1.34375 42 0 43.34375 0 45 C 0 46.65625 1.34375 48 3 48 L 4 48 L 4 55 C 4 55.550781 4.449219 56 5 56 L 59 56 C 59.550781 56 60 55.550781 60 55 L 60 48 L 61 48 C 62.503906 48.003906 63.773438 46.890625 63.972656 45.398438 C 64.167969 43.910156 63.230469 42.503906 61.78125 42.117188 Z M 50 22 L 60 22 L 60 24 L 50 24 Z M 50 19 C 50 18.449219 50.449219 18 51 18 L 59 18 C 59.550781 18 60 18.449219 60 19 L 60 20 L 50 20 Z M 50 41 L 50 26 L 60 26 L 60 41 C 60 41.550781 59.550781 42 59 42 L 51 42 C 50.449219 42 50 41.550781 50 41 Z M 38 41 C 38 40.449219 38.449219 40 39 40 L 41 40 C 41.550781 40 42 40.449219 42 41 L 42 42 L 38 42 Z M 21.78125 36 L 26.21875 36 L 27.71875 42 L 20.28125 42 Z M 61 46 L 51 46 C 50.449219 46 50 46.449219 50 47 C 50 47.550781 50.449219 48 51 48 L 58 48 L 58 54 L 6 54 L 6 48 L 47 48 C 47.550781 48 48 47.550781 48 47 C 48 46.449219 47.550781 46 47 46 L 3 46 C 2.449219 46 2 45.550781 2 45 C 2 44.449219 2.449219 44 3 44 L 61 44 C 61.550781 44 62 44.449219 62 45 C 62 45.550781 61.550781 46 61 46 Z M 61 46 "/>
<path style=" stroke:none;fill-rule:nonzero;fill:rgb(0%,0%,0%);fill-opacity:1;" d="M 58 38 L 57 38 C 56.449219 38 56 38.449219 56 39 C 56 39.550781 56.449219 40 57 40 L 58 40 C 58.550781 40 59 39.550781 59 39 C 59 38.449219 58.550781 38 58 38 Z M 58 38 "/>
<path style=" stroke:none;fill-rule:nonzero;fill:rgb(0%,0%,0%);fill-opacity:1;" d="M 57 36 L 58 36 C 58.550781 36 59 35.550781 59 35 C 59 34.449219 58.550781 34 58 34 L 57 34 C 56.449219 34 56 34.449219 56 35 C 56 35.550781 56.449219 36 57 36 Z M 57 36 "/>
<path style=" stroke:none;fill-rule:nonzero;fill:rgb(100%,100%,100%);fill-opacity:1;" d="M 43 14 C 42.449219 14 42 13.550781 42 13 L 42 11 C 42 10.449219 42.449219 10 43 10 C 43.550781 10 44 10.449219 44 11 L 44 13 C 44 13.550781 43.550781 14 43 14 Z M 43 14 "/>
</g>
</svg>
