<svg version="1.1" id="Layer_1" xmlns="http://www.w3.org/2000/svg" xmlns:xlink="http://www.w3.org/1999/xlink" x="0px" y="0px"
	 width="100%" viewBox="0 0 60 60" enable-background="new 0 0 60 60" xml:space="preserve">
<path fill="#FFFFFF" opacity="1.000000" stroke="none" 
	d="
M61.000000,27.000000 
	C61.000000,29.370558 61.000000,31.741114 60.709946,34.269035 
	C55.468361,40.221409 50.765232,46.483700 43.175404,48.953682 
	C25.414436,54.733685 13.348259,49.446587 2.941010,35.957390 
	C2.545243,35.444427 1.658143,35.310535 1.000000,35.000000 
	C1.000000,32.629440 1.000000,30.258884 1.284477,27.730566 
	C2.733045,26.257307 3.849527,24.895792 5.069153,23.633972 
	C11.704629,16.768957 18.985785,11.341447 29.163851,10.936233 
	C41.406555,10.448819 50.524788,15.688711 57.736439,25.138134 
	C58.436161,26.054974 59.894051,26.393188 61.000000,27.000000 
M29.701401,18.000002 
	C25.268047,18.280775 18.946701,22.552523 18.234133,26.493509 
	C17.168463,32.387398 17.762403,37.952171 23.328693,41.908878 
	C26.382290,44.079475 33.230114,44.924191 36.801189,43.063354 
	C42.544926,40.070385 45.602741,33.050159 43.910778,26.740957 
	C42.676182,22.137234 36.375916,18.009092 29.701401,18.000002 
z"/>
<path fill="#000000" opacity="1.000000" stroke="none" 
	d="
M61.000000,26.531334 
	C59.894051,26.393188 58.436161,26.054974 57.736439,25.138134 
	C50.524788,15.688711 41.406555,10.448819 29.163851,10.936233 
	C18.985785,11.341447 11.704629,16.768957 5.069153,23.633972 
	C3.849527,24.895792 2.733045,26.257307 1.284477,27.286404 
	C1.000000,18.367329 1.000000,9.734657 1.000000,1.050993 
	C20.887451,1.050993 40.775055,1.050993 61.000000,1.050993 
	C61.000000,9.351195 61.000000,17.706932 61.000000,26.531334 
z"/>
<path fill="#000000" opacity="1.000000" stroke="none" 
	d="
M1.000000,35.468666 
	C1.658143,35.310535 2.545243,35.444427 2.941010,35.957390 
	C13.348259,49.446587 25.414436,54.733685 43.175404,48.953682 
	C50.765232,46.483700 55.468361,40.221409 60.709946,34.713200 
	C61.000000,43.632675 61.000000,52.265350 61.000000,60.949013 
	C41.112537,60.949013 21.224922,60.949013 1.000000,60.949013 
	C1.000000,52.648804 1.000000,44.293068 1.000000,35.468666 
z"/>
<path fill="#000000" opacity="1.000000" stroke="none" 
	d="
M30.135981,18.000000 
	C36.375916,18.009092 42.676182,22.137234 43.910778,26.740957 
	C45.602741,33.050159 42.544926,40.070385 36.801189,43.063354 
	C33.230114,44.924191 26.382290,44.079475 23.328693,41.908878 
	C17.762403,37.952171 17.168463,32.387398 18.234133,26.493509 
	C18.946701,22.552523 25.268047,18.280775 30.135981,18.000000 
M30.576744,36.999996 
	C35.097099,37.469376 37.334732,35.784809 37.077824,30.892357 
	C36.902130,27.546612 36.506966,24.919924 32.354816,24.998407 
	C29.314285,25.055878 25.488117,24.184490 25.116949,28.692293 
	C24.832262,32.149815 23.560175,36.815010 30.576744,36.999996 
z"/>
<path fill="#FFFFFF" opacity="1.000000" stroke="none" 
	d="
M30.141144,36.999939 
	C23.560175,36.815010 24.832262,32.149815 25.116949,28.692293 
	C25.488117,24.184490 29.314285,25.055878 32.354816,24.998407 
	C36.506966,24.919924 36.902130,27.546612 37.077824,30.892357 
	C37.334732,35.784809 35.097099,37.469376 30.141144,36.999939 
z"/>
</svg>