<svg xmlns="http://www.w3.org/2000/svg"  viewBox="0 0 479.965 479.965" width="60px" height="60px"><path fill="#ffebd2" d="M425.605,381.54c0,17.888-19.09,28.34-33.098,21.336c-13.359-5.671-26.646-10.308-39.789-14.056	c-0.559-0.446-15.372,22.25-48.475,37.182l0.048,0.108c-34.203,15.438-73.728,15.594-108.027,0.48c0-0.228-0.01-0.166,0.036-0.288	c-18.97-8.458-35.585-21.276-48.643-37.17l-0.385,0.324c-13.395,3.592-27.752,8.181-40.726,13.599	c-15.474,6.608-32.677-4.685-32.677-21.516c0-236.212,0.048-200.976-0.132-232.885C73.737,70.975,136.712,8,214.393,8h70.688	c77.68,0,140.656,62.975,140.656,140.656C425.557,180.564,425.605,144.055,425.605,381.54z"/><path fill="#42434d" d="M382.488,304.917V200.261c0-3.118-2.016-5.851-4.97-6.847c-25.78-8.695-46.569-26.672-59.109-49.488	c-2.616-4.759-9.398-5.028-12.329-0.457c-13.831,21.57-32.995,39.044-56.029,51.073c-4.947,2.583-10.75-1.109-10.585-6.687	c0.163-5.512-0.492-11.04-1.947-16.384c-1.545-5.675-8.817-7.237-12.555-2.696c-25.91,31.471-63.971,44.066-99.447,37.355	c-4.437-0.839-8.53,2.617-8.53,7.133v90.214c0,32.413,11.497,62.339,30.671,85.657l-0.384,0.324	c-13.543,3.638-27.724,8.182-40.726,13.599c-15.474,6.608-32.677-4.685-32.677-21.516c0-236.213,0.044-200.978-0.132-232.885	C73.737,70.976,136.712,8,214.393,8h70.688c77.68,0,140.656,62.976,140.656,140.656c-0.176,31.908-0.132-4.601-0.132,232.885	c0,17.853-19.04,28.365-33.098,21.336c-23.879-10.136-39.32-13.68-39.849-14.104C371.303,365.911,382.488,336.718,382.488,304.917z"/><path fill="#585966" d="M329.254,15.078c22.719,7.51,16.849,41.156-7.078,40.981c-0.861-0.006-70.421-0.004-71.742-0.004	c-77.68,0-140.656,62.975-140.656,140.656c0.171,31.064,0.134,0.684,0.132,189.001c0,15.428-18.841,23.186-29.521,12.051	c-4.283-4.465-6.52-10.15-6.52-16.222c0-236.208,0.044-200.976-0.132-232.885C73.737,70.975,136.712,8,214.393,8	C289.925,8,302.35,6.184,329.254,15.078z"/><path fill="#fff3e4" d="M187.033,368.981c18.497,20.687-11.276,49.336-30.818,29.632	c-25.152-25.36-39.229-59.348-39.229-95.138v-90.211c0-4.517,4.097-7.977,8.53-7.136c4.681,0.881,10.915,1.551,17.969,1.568	c5.279,0.013,9.542,4.328,9.542,9.607v62.144C153.027,314.529,166.116,345.587,187.033,368.981z"/><path fill="#aefcfe" d="M129.877,295.63c11.4,11.4,11.4,29.88,0,41.28c-7.82,7.83-7.82,20.52,0,28.34l31.01,31.01	c7.797,7.817,20.522,7.838,28.34,0c11.4-11.4,29.88-11.4,41.28,0l14.65,14.65c7.35,7.34,9.96,17.63,7.83,27.07	c-6.492,28.909-65.695,52.025-103.52,14.2l-75.51-75.51c-26.42-26.43-26.42-69.26,0-95.69c11.329-11.329,29.82-11.447,41.28,0	C117.248,282.991,114.809,280.551,129.877,295.63z"/><path fill="#d9feff" d="M166.733,439.96c9.487,9.356-3.973,24.077-13.99,15.29c-2.407-2.112,2.689,2.896-78.787-78.58	c-17.724-17.73-22.16-40.339-18.674-59.977c3.347-18.857,31.46-14.43,29.368,4.608c-2.029,18.476,2.925,38.983,19.305,55.369	L166.733,439.96z"/><path d="M433.737,148.658l-0.135,232.91c-0.012,22.527-23.058,37.706-43.805,28.854c-10.328-4.417-4.09-19.158,6.31-14.704	c10.146,4.33,21.489-3.028,21.495-14.16l0.135-232.905C417.737,75.51,358.227,16,285.079,16h-70.684	C141.247,16,81.737,75.51,81.737,148.658l0.046,84.339c0.002,4.418-3.577,8.002-7.996,8.004c-4.418,0.002-8.002-3.576-8.004-7.996	l-0.046-84.343C65.737,66.688,132.424,0,214.395,0h70.684C367.049,0,433.737,66.688,433.737,148.658z M390.488,194.958	c0-3.576-2.373-6.718-5.813-7.695c-28.699-8.157-52.95-29.228-64.479-58.278c-2.517-6.346-11.366-6.82-14.53-0.746	c-12.747,24.464-32.552,44.98-58.176,58.619c0.114-10.951-2.578-22.012-8.212-32.027c-2.812-4.998-9.796-5.469-13.283-0.994	c-10.676,13.7-29.434,32.284-58.17,43.013c-4.14,1.546-6.242,6.154-4.697,10.293c1.547,4.141,6.156,6.24,10.293,4.697	c25.487-9.516,43.953-24.507,56.473-37.942c2.062,7.8,2.186,16.173,0.035,24.402c-1.667,6.384,4.701,11.939,10.803,9.414	c29.883-12.382,54.279-32.693,71.328-58.765c14.307,25.285,36.867,43.099,62.429,51.882v104.087	c0,48.504-28.468,92.987-72.524,113.327c-4.011,1.853-5.762,6.605-3.91,10.617c1.853,4.01,6.603,5.762,10.617,3.91	c49.378-22.797,81.397-72.475,81.813-126.779C390.49,305.814,390.488,195.136,390.488,194.958z M236.164,390.602	c-14.535-14.533-38.057-14.534-52.593,0c-4.693,4.697-12.335,4.695-17.028,0l-31.007-31.005c-4.695-4.695-4.694-12.336,0.001-17.03	c4.077-4.078,7.078-8.897,8.919-14.326c1.419-4.185-0.822-8.727-5.007-10.146c-4.183-1.42-8.727,0.822-10.146,5.007	c-1.045,3.083-2.755,5.824-5.082,8.151c-10.932,10.934-10.932,28.723,0,39.657l31.007,31.006c10.935,10.934,28.725,10.932,39.657,0	c8.279-8.281,21.684-8.281,29.964,0l14.647,14.646c8.28,8.28,8.282,21.683,0,29.964c-23.261,23.263-61.109,23.261-84.368,0	l-75.518-75.518c-23.261-23.26-23.261-61.108,0-84.368c8.261-8.263,21.702-8.263,29.963-0.002l1.599,1.6	c5.206,5.208,13.771,1.152,13.753-5.771l-0.188-69.488c-0.012-4.411-3.591-7.979-8-7.979c-4.426,0-8.012,3.593-8,8.021l0.147,54.248	c-47.626-19.81-89.98,65.661-40.588,115.054l75.518,75.518c29.501,29.499,77.496,29.499,106.997,0	c14.533-14.535,14.534-38.058-0.001-52.593L236.164,390.602z M217.737,277v-21c0-4.418-3.582-8-8-8s-8,3.582-8,8v21	c0,4.418,3.582,8,8,8S217.737,281.418,217.737,277z M297.737,256c0-4.418-3.582-8-8-8s-8,3.582-8,8v21c0,4.418,3.582,8,8,8	s8-3.582,8-8V256z M266.937,337.6c-11.185,8.39-26.871,8.649-38.399,0.001c-3.534-2.652-8.549-1.936-11.2,1.599	s-1.936,8.549,1.599,11.2c17.277,12.963,40.807,12.596,57.601,0.001c3.535-2.651,4.251-7.666,1.601-11.2	C275.484,335.664,270.468,334.949,266.937,337.6z"/></svg>