<?xml version="1.0" encoding="UTF-8"?>
<svg xmlns="http://www.w3.org/2000/svg" xmlns:xlink="http://www.w3.org/1999/xlink" viewBox="0 0 64 64" width="64px" height="64px">
<g id="surface3602200">
<path style=" stroke:none;fill-rule:nonzero;fill:rgb(93.333334%,87.843138%,82.745099%);fill-opacity:1;" d="M 18 46 L 60 46 L 60 8 L 18 8 Z M 63 7 L 63 47 C 62.996094 48.101562 62.101562 48.996094 61 49 L 17 49 C 15.898438 48.996094 15.003906 48.101562 15 47 L 15 7 C 15.003906 5.898438 15.898438 5.003906 17 5 L 61 5 C 62.101562 5.003906 62.996094 5.898438 63 7 Z M 63 7 "/>
<path style=" stroke:none;fill-rule:nonzero;fill:rgb(27.450982%,50.980395%,38.039216%);fill-opacity:1;" d="M 18 8 L 60 8 L 60 46 L 18 46 Z M 18 8 "/>
<path style=" stroke:none;fill-rule:nonzero;fill:rgb(21.568628%,40.000001%,29.803923%);fill-opacity:1;" d="M 46 41 C 33.851562 41 24 31.148438 24 19 L 24 8 L 18 8 L 18 46 L 60 46 L 60 41 Z M 46 41 "/>
<path style=" stroke:none;fill-rule:nonzero;fill:rgb(34.509805%,63.921571%,47.843137%);fill-opacity:1;" d="M 46 9 L 49 9 L 49 11 L 46 11 Z M 46 9 "/>
<path style=" stroke:none;fill-rule:nonzero;fill:rgb(34.509805%,63.921571%,47.843137%);fill-opacity:1;" d="M 51 9 L 59 9 L 59 11 L 51 11 Z M 51 9 "/>
<path style=" stroke:none;fill-rule:nonzero;fill:rgb(95.686275%,72.941178%,65.098041%);fill-opacity:1;" d="M 34 39.71875 C 34 39.90625 33.96875 40.09375 33.910156 40.269531 L 33 43 L 27 43 L 27 39.230469 C 27 38.425781 27.242188 37.640625 27.699219 36.980469 L 29.929688 33.699219 C 30.214844 33.132812 30.875 32.867188 31.46875 33.078125 C 32.046875 33.351562 32.40625 33.941406 32.378906 34.578125 C 32.378906 34.878906 32.304688 35.175781 32.160156 35.441406 L 31.378906 36.820312 L 33.339844 38.359375 C 33.757812 38.6875 34 39.1875 34 39.71875 Z M 34 39.71875 "/>
<path style=" stroke:none;fill-rule:nonzero;fill:rgb(33.333334%,37.254903%,63.921571%);fill-opacity:1;" d="M 14 53.589844 L 14 55 L 10 55 L 10 53.589844 C 10 53.195312 10.039062 52.804688 10.121094 52.421875 L 11 48 L 13 48 L 13.878906 52.421875 C 13.960938 52.804688 14 53.195312 14 53.589844 Z M 14 53.589844 "/>
<path style=" stroke:none;fill-rule:nonzero;fill:rgb(80.784315%,67.058825%,54.509807%);fill-opacity:1;" d="M 7.109375 43.21875 L 7 43 L 9 42 L 12 44 L 9 47 Z M 7.109375 43.21875 "/>
<path style=" stroke:none;fill-rule:nonzero;fill:rgb(33.333334%,37.254903%,63.921571%);fill-opacity:1;" d="M 14 46 L 13 48 L 11 48 L 10 46 L 12 44 Z M 14 46 "/>
<path style=" stroke:none;fill-rule:nonzero;fill:rgb(98.431373%,72.549021%,38.431373%);fill-opacity:1;" d="M 33 43 L 29 55 L 14 55 L 14 53.589844 C 14 53.195312 13.960938 52.804688 13.878906 52.421875 L 13 48 L 14 46 L 15 47 L 16.878906 43.230469 C 20.390625 44.210938 23 48.230469 23 52 L 26 43 Z M 33 43 "/>
<path style=" stroke:none;fill-rule:nonzero;fill:rgb(80.784315%,67.058825%,54.509807%);fill-opacity:1;" d="M 16.878906 43.230469 L 15 47 L 12 44 L 15 42 L 17 43 Z M 16.878906 43.230469 "/>
<path style=" stroke:none;fill-rule:nonzero;fill:rgb(98.431373%,72.549021%,38.431373%);fill-opacity:1;" d="M 10 46 L 11 48 L 10.121094 52.421875 C 10.039062 52.804688 10 53.195312 10 53.589844 L 10 55 L 1 55 L 1 51 C 0.996094 47.308594 3.523438 44.09375 7.109375 43.21875 L 9 47 Z M 10 46 "/>
<path style=" stroke:none;fill-rule:nonzero;fill:rgb(47.058824%,25.490198%,19.607843%);fill-opacity:1;" d="M 22 28 C 22 33 19 35 19 35 L 18.921875 34.988281 C 18.976562 34.664062 19.003906 34.332031 19 34 L 19 27 C 19 27 15 30 11 30 L 11 27 C 11 27 7 30 5 30 L 5 34 C 4.996094 34.332031 5.023438 34.664062 5.078125 34.988281 L 5 35 C 5 35 2 33 2 28 C 1.878906 26.21875 2.433594 24.460938 3.550781 23.070312 C 4.175781 22.378906 5.066406 21.988281 6 22 L 8 20 C 8 20 9 19 12 19 C 16 19 22 23 22 28 Z M 22 28 "/>
<path style=" stroke:none;fill-rule:nonzero;fill:rgb(95.686275%,72.941178%,65.098041%);fill-opacity:1;" d="M 19 27 L 19 34 C 19.003906 34.332031 18.976562 34.664062 18.921875 34.988281 C 18.609375 37.191406 17.269531 39.117188 15.3125 40.167969 C 13.351562 41.222656 11.007812 41.277344 9 40.320312 C 6.875 39.320312 5.398438 37.316406 5.078125 34.988281 C 5.023438 34.664062 4.996094 34.332031 5 34 L 5 30 C 7 30 11 27 11 27 L 11 30 C 15 30 19 27 19 27 Z M 19 27 "/>
<path style=" stroke:none;fill-rule:nonzero;fill:rgb(83.92157%,53.725493%,45.882353%);fill-opacity:1;" d="M 9 40.320312 L 9 42 L 12 44 L 15 42 L 15 40.320312 C 13.101562 41.226562 10.898438 41.226562 9 40.320312 Z M 9 40.320312 "/>
<path style=" stroke:none;fill-rule:nonzero;fill:rgb(78.823531%,42.352942%,33.333334%);fill-opacity:1;" d="M 9 40.320312 L 9 42 L 10 42.667969 L 15 41 L 15 40.320312 C 13.101562 41.226562 10.898438 41.226562 9 40.320312 Z M 9 40.320312 "/>
<path style=" stroke:none;fill-rule:nonzero;fill:rgb(29.803923%,17.254902%,12.941177%);fill-opacity:1;" d="M 3 27 C 3 27 3 23 6 22 C 5.066406 21.988281 4.175781 22.378906 3.550781 23.070312 C 2.433594 24.460938 1.878906 26.21875 2 28 C 2 33 5 35 5 35 L 5.078125 34.988281 C 5.023438 34.664062 4.996094 34.332031 5 34 L 5 30 C 5 30 3 30 3 27 Z M 3 27 "/>
<path style=" stroke:none;fill-rule:nonzero;fill:rgb(29.803923%,17.254902%,12.941177%);fill-opacity:1;" d="M 20 30 C 19.464844 29.078125 19.125 28.058594 19 27 L 19 34 C 19.003906 34.332031 18.976562 34.664062 18.921875 34.988281 L 19 35 C 19 35 22 33 22 28 C 22 27.859375 21.980469 27.726562 21.96875 27.585938 C 21.726562 30 20 30 20 30 Z M 20 30 "/>
<path style=" stroke:none;fill-rule:nonzero;fill:rgb(94.901961%,63.529414%,51.372552%);fill-opacity:1;" d="M 18.785156 35.601562 C 18.269531 35.210938 17.644531 35 17 35 C 15.742188 34.996094 14.613281 35.78125 14.183594 36.960938 C 13.75 38.144531 14.105469 39.472656 15.070312 40.277344 C 16.964844 39.375 18.335938 37.648438 18.785156 35.601562 Z M 18.785156 35.601562 "/>
<path style=" stroke:none;fill-rule:nonzero;fill:rgb(94.901961%,63.529414%,51.372552%);fill-opacity:1;" d="M 10 38 C 10.003906 36.863281 9.363281 35.820312 8.347656 35.3125 C 7.328125 34.804688 6.109375 34.921875 5.203125 35.609375 C 5.675781 37.648438 7.046875 39.367188 8.929688 40.28125 C 9.605469 39.714844 9.996094 38.882812 10 38 Z M 10 38 "/>
<path style=" stroke:none;fill-rule:nonzero;fill:rgb(85.09804%,53.725493%,42.745098%);fill-opacity:1;" d="M 10 37 L 14 37 C 14.007812 37.738281 13.59375 38.421875 12.933594 38.753906 C 12.644531 38.90625 12.324219 38.988281 12 39 C 11.675781 38.988281 11.355469 38.90625 11.066406 38.753906 C 10.40625 38.421875 9.992188 37.738281 10 37 Z M 10 37 "/>
<path style=" stroke:none;fill-rule:nonzero;fill:rgb(94.901961%,63.529414%,51.372552%);fill-opacity:1;" d="M 27.960938 41.277344 C 27.390625 41.128906 26.996094 40.613281 27 40.023438 L 27 43 L 33 43 L 33.332031 42 L 33 42 C 31.296875 41.964844 29.605469 41.722656 27.960938 41.277344 Z M 27.960938 41.277344 "/>
<path style=" stroke:none;fill-rule:nonzero;fill:rgb(94.901961%,63.529414%,51.372552%);fill-opacity:1;" d="M 33.339844 38.359375 L 31.378906 36.820312 L 31.386719 36.804688 L 31 37 L 31 38 L 33.960938 39.972656 C 33.980469 39.890625 33.992188 39.804688 34 39.71875 C 34 39.1875 33.757812 38.6875 33.339844 38.359375 Z M 33.339844 38.359375 "/>
<path style=" stroke:none;fill-rule:nonzero;fill:rgb(21.960784%,25.098041%,43.529412%);fill-opacity:1;" d="M 13.855469 45.855469 L 12 44 L 10 46 L 10.332031 46.667969 L 12 45 L 13.667969 46.667969 L 14 46 Z M 13.855469 45.855469 "/>
<path style=" stroke:none;fill-rule:nonzero;fill:rgb(87.450981%,53.725493%,34.509805%);fill-opacity:1;" d="M 16.878906 43.230469 L 16 45 L 15 47 L 14 46 L 13.667969 46.667969 L 15 48 L 17.054688 44.578125 L 17.6875 43.523438 C 17.425781 43.40625 17.15625 43.308594 16.878906 43.230469 Z M 16.878906 43.230469 "/>
<path style=" stroke:none;fill-rule:nonzero;fill:rgb(87.450981%,53.725493%,34.509805%);fill-opacity:1;" d="M 6 51.421875 C 6 49.960938 6.890625 48.644531 8.25 48.101562 L 8.902344 47.839844 L 9 48 L 9.332031 47.667969 L 10.582031 47.167969 L 10.332031 46.667969 L 10 46 L 9 47 L 7.109375 43.21875 C 3.535156 44.113281 1.019531 47.316406 1 51 L 1 55 L 9.578125 55 C 7.601562 55 6 53.398438 6 51.421875 Z M 6 51.421875 "/>
<path style=" stroke:none;fill-rule:nonzero;fill:rgb(21.960784%,25.098041%,43.529412%);fill-opacity:1;" d="M 11.621094 50.515625 C 11.8125 49.753906 12.433594 49.171875 13.207031 49.03125 L 13 48 L 11 48 L 10.121094 52.421875 C 10.039062 52.804688 10 53.195312 10 53.589844 L 10 55 L 11 55 L 11 53 Z M 11.621094 50.515625 "/>
<path style=" stroke:none;fill-rule:nonzero;fill:rgb(87.450981%,53.725493%,34.509805%);fill-opacity:1;" d="M 25.683594 52.121094 L 29 43 L 26 43 L 23 52 L 23 54 C 24.199219 54 25.273438 53.25 25.683594 52.121094 Z M 25.683594 52.121094 "/>
<path style=" stroke:none;fill-rule:nonzero;fill:rgb(83.92157%,26.274511%,47.450981%);fill-opacity:1;" d="M 11 51 L 11 58 C 9.285156 58.011719 7.585938 58.347656 6 59 L 6 52 C 7.578125 51.316406 9.28125 50.976562 11 51 Z M 11 51 "/>
<path style=" stroke:none;fill-rule:nonzero;fill:rgb(69.01961%,23.921569%,42.745098%);fill-opacity:1;" d="M 6 52 L 6 59 C 4.414062 58.347656 2.714844 58.011719 1 58 L 1 51 C 2.71875 50.976562 4.421875 51.316406 6 52 Z M 6 52 "/>
<path style=" stroke:none;fill-rule:nonzero;fill:rgb(73.333335%,25.490198%,45.490196%);fill-opacity:1;" d="M 7 54.699219 L 7 51.617188 C 6.660156 51.726562 6.324219 51.851562 6 52 L 6 59 C 7.585938 58.347656 9.285156 58.011719 11 58 L 11 56.566406 C 10.363281 56.585938 9.746094 56.628906 9.199219 56.683594 C 8.636719 56.742188 8.078125 56.558594 7.660156 56.179688 C 7.242188 55.800781 7 55.265625 7 54.699219 Z M 7 54.699219 "/>
<path style=" stroke:none;fill-rule:nonzero;fill:rgb(61.176473%,21.176471%,37.64706%);fill-opacity:1;" d="M 1.925781 51.035156 C 1.625 51.015625 1.320312 51 1 51 L 1 58 C 2.714844 58.011719 4.414062 58.347656 6 59 L 6 57 C 2.210938 57 1.867188 52.984375 1.925781 51.035156 Z M 1.925781 51.035156 "/>
<path style=" stroke:none;fill-rule:nonzero;fill:rgb(0%,0%,0%);fill-opacity:1;" d="M 35 39.71875 C 35.003906 38.882812 34.617188 38.089844 33.957031 37.574219 L 32.667969 36.5625 L 33.023438 35.9375 C 33.417969 35.234375 33.488281 34.394531 33.21875 33.636719 C 32.992188 32.964844 32.488281 32.425781 31.832031 32.15625 C 30.804688 31.761719 29.644531 32.179688 29.109375 33.140625 L 26.871094 36.421875 C 26.304688 37.25 26 38.230469 26 39.234375 L 26 42 C 25.570312 42 25.1875 42.277344 25.050781 42.683594 L 23.226562 48.15625 C 22.285156 45.625 20.347656 43.59375 17.863281 42.53125 C 17.773438 42.351562 17.625 42.199219 17.445312 42.105469 L 16 41.382812 L 16 40.917969 C 17.972656 39.777344 19.367188 37.847656 19.835938 35.617188 C 20.683594 34.890625 21.375 34 21.871094 33 L 25 33 L 25 31 L 22.625 31 C 22.796875 30.34375 22.910156 29.675781 22.960938 29 L 57 29 L 57 27 L 22.929688 27 C 22.832031 26.3125 22.644531 25.640625 22.371094 25 L 57 25 L 57 23 L 21.199219 23 C 18.917969 19.964844 14.925781 18 12 18 C 8.75 18 7.507812 19.078125 7.292969 19.292969 L 5.5625 21.019531 C 4.5 21.113281 3.515625 21.609375 2.800781 22.398438 C 1.523438 23.976562 0.882812 25.972656 1 28 C 0.851562 30.886719 2.015625 33.683594 4.164062 35.617188 C 4.632812 37.847656 6.027344 39.777344 8 40.917969 L 8 41.382812 L 6.554688 42.105469 C 6.390625 42.191406 6.257812 42.324219 6.164062 42.480469 C 3.273438 43.449219 1.0625 45.804688 0.28125 48.75 L 2.222656 49.25 C 2.8125 47.03125 4.445312 45.238281 6.605469 44.449219 L 8.105469 47.449219 C 8.246094 47.738281 8.519531 47.9375 8.835938 47.988281 C 9.15625 48.042969 9.476562 47.9375 9.703125 47.710938 L 9.722656 47.691406 L 9.949219 48.144531 L 9.5625 50.082031 C 8.34375 50.195312 7.144531 50.476562 6 50.910156 C 4.402344 50.300781 2.707031 49.992188 1 50 C 0.449219 50 0 50.449219 0 51 L 0 58 C 0 58.550781 0.449219 59 1 59 C 2.5625 59.011719 4.105469 59.316406 5.554688 59.898438 C 5.566406 59.90625 5.585938 59.898438 5.601562 59.910156 C 5.851562 60.035156 6.148438 60.035156 6.398438 59.910156 C 6.414062 59.902344 6.433594 59.910156 6.445312 59.898438 C 7.894531 59.316406 9.4375 59.011719 11 59 C 11.550781 59 12 58.550781 12 58 L 12 51 C 11.996094 50.683594 11.839844 50.386719 11.578125 50.207031 L 11.820312 49 L 12.179688 49 L 12.902344 52.613281 C 12.96875 52.933594 13.003906 53.265625 13.003906 53.59375 L 13.003906 56 L 29 56 C 29.429688 56 29.8125 55.722656 29.949219 55.316406 L 33.949219 43.316406 L 34.859375 40.582031 C 34.953125 40.304688 35 40.011719 35 39.71875 Z M 28 39.234375 C 28 38.632812 28.179688 38.042969 28.523438 37.542969 L 30.804688 34.191406 C 30.816406 34.167969 30.953125 33.957031 31.105469 34.011719 C 31.21875 34.070312 31.300781 34.175781 31.335938 34.300781 C 31.414062 34.511719 31.394531 34.75 31.289062 34.949219 L 30.507812 36.328125 C 30.265625 36.757812 30.371094 37.300781 30.761719 37.605469 L 32.726562 39.148438 C 32.898438 39.289062 33 39.496094 33 39.71875 C 33 39.796875 32.988281 39.875 32.964844 39.949219 L 32.28125 42 L 28 42 Z M 12 42.800781 L 10.609375 41.871094 C 11.527344 42.046875 12.472656 42.046875 13.390625 41.871094 Z M 14.726562 45.3125 L 13.570312 44.15625 L 15.070312 43.15625 L 15.65625 43.449219 Z M 3 28 C 2.890625 26.464844 3.351562 24.941406 4.300781 23.730469 C 4.738281 23.253906 5.355469 22.988281 6 23 C 6.265625 23 6.519531 22.894531 6.707031 22.707031 L 8.683594 20.730469 C 8.691406 20.722656 9.554688 20 12 20 C 15.472656 20 21 23.660156 21 28 C 21.03125 29.488281 20.6875 30.960938 20 32.277344 L 20 27 C 20 26.621094 19.785156 26.273438 19.445312 26.105469 C 19.109375 25.9375 18.703125 25.972656 18.398438 26.199219 C 16.492188 27.570312 14.308594 28.503906 12 28.933594 L 12 27 C 12 26.621094 11.785156 26.273438 11.445312 26.105469 C 11.109375 25.9375 10.703125 25.972656 10.398438 26.199219 C 8.847656 27.363281 6.144531 29 5 29 C 4.449219 29 4 29.449219 4 30 L 4 32.277344 C 3.3125 30.960938 2.96875 29.488281 3 28 Z M 6 34 L 6 30.855469 C 7.421875 30.40625 8.769531 29.75 10 28.910156 L 10 30 C 10 30.550781 10.449219 31 11 31 C 13.476562 30.875 15.882812 30.128906 18 28.832031 L 18 34 C 18 37.3125 15.3125 40 12 40 C 8.6875 40 6 37.3125 6 34 Z M 8.34375 43.445312 L 8.929688 43.152344 L 10.429688 44.152344 L 9.273438 45.3125 Z M 12 45.414062 L 12.78125 46.195312 L 12.382812 46.996094 L 11.617188 46.996094 L 11.21875 46.195312 Z M 2 52.039062 C 3.023438 52.121094 4.03125 52.332031 5 52.671875 L 5 57.554688 C 4.019531 57.289062 3.015625 57.117188 2 57.046875 Z M 10 57.046875 C 8.984375 57.117188 7.980469 57.289062 7 57.554688 L 7 52.671875 C 7.96875 52.332031 8.976562 52.121094 10 52.039062 Z M 28.277344 54 L 15 54 L 15 53.59375 C 15 53.132812 14.953125 52.671875 14.863281 52.222656 L 14.046875 48.140625 L 14.273438 47.6875 L 14.292969 47.707031 C 14.480469 47.894531 14.734375 48 15 48 C 15.054688 48 15.105469 47.996094 15.160156 47.988281 C 15.476562 47.9375 15.75 47.734375 15.894531 47.445312 L 17.375 44.488281 C 20.199219 45.929688 21.984375 48.828125 22 52 C 22 52.488281 22.355469 52.90625 22.839844 52.984375 C 23.324219 53.0625 23.792969 52.78125 23.949219 52.316406 L 26.722656 44 L 31.613281 44 Z M 28.277344 54 "/>
<path style=" stroke:none;fill-rule:nonzero;fill:rgb(0%,0%,0%);fill-opacity:1;" d="M 61 4 L 17 4 C 15.34375 4 14 5.34375 14 7 L 14 17 L 16 17 L 16 7 C 16 6.449219 16.449219 6 17 6 L 61 6 C 61.550781 6 62 6.449219 62 7 L 62 47 C 62 47.550781 61.550781 48 61 48 L 34 48 L 34 50 L 61 50 C 62.65625 50 64 48.65625 64 47 L 64 7 C 64 5.34375 62.65625 4 61 4 Z M 61 4 "/>
<path style=" stroke:none;fill-rule:nonzero;fill:rgb(0%,0%,0%);fill-opacity:1;" d="M 34 45 L 36 45 L 36 47 L 34 47 Z M 34 45 "/>
<path style=" stroke:none;fill-rule:nonzero;fill:rgb(0%,0%,0%);fill-opacity:1;" d="M 61 46 L 61 8 C 61 7.449219 60.550781 7 60 7 L 18 7 C 17.449219 7 17 7.449219 17 8 L 17 17 L 19 17 L 19 9 L 59 9 L 59 45 L 38 45 L 38 47 L 60 47 C 60.550781 47 61 46.550781 61 46 Z M 61 46 "/>
<path style=" stroke:none;fill-rule:nonzero;fill:rgb(0%,0%,0%);fill-opacity:1;" d="M 21 15 L 27 15 L 27 17 L 21 17 Z M 21 15 "/>
<path style=" stroke:none;fill-rule:nonzero;fill:rgb(0%,0%,0%);fill-opacity:1;" d="M 21 19 L 57 19 L 57 21 L 21 21 Z M 21 19 "/>
<path style=" stroke:none;fill-rule:nonzero;fill:rgb(0%,0%,0%);fill-opacity:1;" d="M 36 31 L 57 31 L 57 33 L 36 33 Z M 36 31 "/>
<path style=" stroke:none;fill-rule:nonzero;fill:rgb(0%,0%,0%);fill-opacity:1;" d="M 36 35 L 57 35 L 57 37 L 36 37 Z M 36 35 "/>
<path style=" stroke:none;fill-rule:nonzero;fill:rgb(0%,0%,0%);fill-opacity:1;" d="M 21 35 L 25 35 L 25 37 L 21 37 Z M 21 35 "/>
<path style=" stroke:none;fill-rule:nonzero;fill:rgb(0%,0%,0%);fill-opacity:1;" d="M 36 39 L 57 39 L 57 41 L 36 41 Z M 36 39 "/>
<path style=" stroke:none;fill-rule:nonzero;fill:rgb(0%,0%,0%);fill-opacity:1;" d="M 21 39 L 25 39 L 25 41 L 21 41 Z M 21 39 "/>
<path style=" stroke:none;fill-rule:nonzero;fill:rgb(0%,0%,0%);fill-opacity:1;" d="M 21 11 L 25 11 L 25 13 L 21 13 Z M 21 11 "/>
</g>
</svg>
