<?xml version="1.0" encoding="UTF-8"?>
<svg xmlns="http://www.w3.org/2000/svg" xmlns:xlink="http://www.w3.org/1999/xlink" viewBox="0 0 64 64" width="64px" height="64px">
<g id="surface33068288">
<path style=" stroke:none;fill-rule:nonzero;fill:rgb(42.745098%,45.490196%,52.549022%);fill-opacity:1;" d="M 61.75 12.503906 L 61.75 16.972656 L 2.25 16.972656 L 2.25 12.503906 C 2.25 10.433594 3.929688 8.753906 6 8.753906 L 58 8.753906 C 60.070312 8.753906 61.75 10.433594 61.75 12.503906 Z M 61.75 12.503906 "/>
<path style=" stroke:none;fill-rule:nonzero;fill:rgb(29.019609%,31.764707%,37.64706%);fill-opacity:1;" d="M 6 12.503906 C 6 10.433594 7.679688 8.753906 9.75 8.753906 L 6 8.753906 C 3.929688 8.753906 2.25 10.433594 2.25 12.503906 L 2.25 16.972656 L 6 16.972656 Z M 6 12.503906 "/>
<path style=" stroke:none;fill-rule:nonzero;fill:rgb(83.137256%,88.235295%,95.686275%);fill-opacity:1;" d="M 61.75 16.972656 L 61.75 51.496094 C 61.75 53.566406 60.070312 55.246094 58 55.246094 L 6 55.246094 C 3.929688 55.246094 2.25 53.566406 2.25 51.496094 L 2.25 16.972656 Z M 61.75 16.972656 "/>
<path style=" stroke:none;fill-rule:nonzero;fill:rgb(18.82353%,56.470591%,98.823529%);fill-opacity:1;" d="M 14.546875 32.78125 C 16.101562 32.78125 17.503906 33.71875 18.097656 35.152344 C 18.695312 36.589844 18.363281 38.242188 17.265625 39.34375 C 16.167969 40.441406 14.511719 40.769531 13.078125 40.175781 C 11.640625 39.582031 10.703125 38.179688 10.703125 36.625 C 10.703125 34.503906 12.421875 32.78125 14.546875 32.78125 Z M 14.546875 32.78125 "/>
<path style=" stroke:none;fill-rule:nonzero;fill:rgb(18.82353%,56.470591%,98.823529%);fill-opacity:1;" d="M 49.453125 32.78125 C 51.578125 32.78125 53.296875 34.503906 53.296875 36.625 C 53.296875 38.746094 51.578125 40.46875 49.453125 40.46875 C 47.332031 40.46875 45.609375 38.746094 45.609375 36.625 C 45.609375 35.605469 46.015625 34.628906 46.734375 33.90625 C 47.457031 33.1875 48.433594 32.78125 49.453125 32.78125 Z M 49.453125 32.78125 "/>
<path style=" stroke:none;fill-rule:nonzero;fill:rgb(52.549022%,47.843137%,95.686275%);fill-opacity:1;" d="M 40.863281 25.761719 L 40.863281 46.988281 L 32 36.375 Z M 40.863281 25.761719 "/>
<path style=" stroke:none;fill-rule:nonzero;fill:rgb(52.549022%,47.843137%,95.686275%);fill-opacity:1;" d="M 23.136719 25.761719 L 32 36.375 L 23.136719 46.988281 Z M 23.136719 25.761719 "/>
<path style=" stroke:none;fill-rule:nonzero;fill:rgb(37.64706%,29.019609%,95.294118%);fill-opacity:1;" d="M 40.863281 25.761719 L 32 36.375 L 23.136719 25.761719 Z M 40.863281 25.761719 "/>
<path style=" stroke:none;fill-rule:nonzero;fill:rgb(37.64706%,29.019609%,95.294118%);fill-opacity:1;" d="M 32 36.375 L 40.863281 46.988281 L 23.136719 46.988281 Z M 32 36.375 "/>
<path style=" stroke:none;fill-rule:nonzero;fill:rgb(60.784316%,88.235295%,27.843139%);fill-opacity:1;" d="M 15.230469 11.636719 C 15.949219 11.636719 16.527344 12.21875 16.527344 12.9375 C 16.527344 13.65625 15.945312 14.238281 15.226562 14.238281 C 14.511719 14.238281 13.929688 13.65625 13.929688 12.9375 C 13.929688 12.59375 14.066406 12.261719 14.308594 12.019531 C 14.554688 11.773438 14.886719 11.636719 15.230469 11.636719 Z M 15.230469 11.636719 "/>
<path style=" stroke:none;fill-rule:nonzero;fill:rgb(100%,85.882354%,0%);fill-opacity:1;" d="M 10.667969 11.636719 C 11.386719 11.636719 11.964844 12.21875 11.964844 12.9375 C 11.964844 13.65625 11.382812 14.238281 10.664062 14.238281 C 9.949219 14.238281 9.367188 13.65625 9.367188 12.9375 C 9.367188 12.59375 9.503906 12.261719 9.746094 12.019531 C 9.992188 11.773438 10.324219 11.636719 10.667969 11.636719 Z M 10.667969 11.636719 "/>
<path style=" stroke:none;fill-rule:nonzero;fill:rgb(94.509804%,76.862746%,5.882353%);fill-opacity:1;" d="M 6.105469 11.636719 C 6.824219 11.636719 7.402344 12.21875 7.402344 12.9375 C 7.402344 13.65625 6.820312 14.238281 6.101562 14.238281 C 5.386719 14.238281 4.804688 13.65625 4.804688 12.9375 C 4.804688 12.59375 4.941406 12.261719 5.183594 12.019531 C 5.429688 11.773438 5.761719 11.636719 6.105469 11.636719 Z M 6.105469 11.636719 "/>
<path style=" stroke:none;fill-rule:nonzero;fill:rgb(69.803923%,77.254903%,85.882354%);fill-opacity:1;" d="M 6 51.496094 L 6 16.972656 L 2.25 16.972656 L 2.25 51.496094 C 2.25 53.566406 3.929688 55.246094 6 55.246094 L 9.75 55.246094 C 7.679688 55.246094 6 53.566406 6 51.496094 Z M 6 51.496094 "/>
<path style=" stroke:none;fill-rule:nonzero;fill:rgb(15.686275%,25.882354%,40.784314%);fill-opacity:1;" d="M 58 8.003906 L 6 8.003906 C 3.515625 8.007812 1.503906 10.019531 1.5 12.503906 L 1.5 51.496094 C 1.503906 53.980469 3.515625 55.992188 6 55.996094 L 58 55.996094 C 60.484375 55.992188 62.496094 53.980469 62.5 51.496094 L 62.5 12.503906 C 62.496094 10.019531 60.484375 8.007812 58 8.003906 Z M 61 16.222656 L 48.429688 16.222656 C 48.015625 16.222656 47.679688 16.558594 47.679688 16.972656 C 47.679688 17.386719 48.015625 17.722656 48.429688 17.722656 L 61 17.722656 L 61 51.496094 C 61 53.152344 59.65625 54.492188 58 54.496094 L 6 54.496094 C 4.34375 54.492188 3 53.152344 3 51.496094 L 3 17.722656 L 43.699219 17.722656 C 44.113281 17.722656 44.449219 17.386719 44.449219 16.972656 C 44.449219 16.558594 44.113281 16.222656 43.699219 16.222656 L 3 16.222656 L 3 12.503906 C 3 10.847656 4.34375 9.507812 6 9.503906 L 58 9.503906 C 59.65625 9.507812 61 10.847656 61 12.503906 Z M 61 16.222656 "/>
<path style=" stroke:none;fill-rule:nonzero;fill:rgb(15.686275%,25.882354%,40.784314%);fill-opacity:1;" d="M 6.105469 10.886719 C 4.972656 10.886719 4.054688 11.804688 4.054688 12.9375 C 4.054688 14.070312 4.972656 14.988281 6.105469 14.988281 C 7.238281 14.988281 8.15625 14.070312 8.15625 12.9375 C 8.152344 11.804688 7.238281 10.890625 6.105469 10.886719 Z M 6.105469 13.488281 C 5.800781 13.488281 5.554688 13.242188 5.554688 12.9375 C 5.554688 12.632812 5.800781 12.386719 6.105469 12.386719 C 6.410156 12.386719 6.65625 12.632812 6.65625 12.9375 C 6.65625 13.242188 6.410156 13.488281 6.105469 13.488281 Z M 6.105469 13.488281 "/>
<path style=" stroke:none;fill-rule:nonzero;fill:rgb(15.686275%,25.882354%,40.784314%);fill-opacity:1;" d="M 10.667969 10.886719 C 9.535156 10.886719 8.617188 11.804688 8.617188 12.9375 C 8.617188 14.070312 9.535156 14.988281 10.667969 14.988281 C 11.800781 14.988281 12.71875 14.070312 12.71875 12.9375 C 12.714844 11.804688 11.800781 10.890625 10.667969 10.886719 Z M 10.667969 13.488281 C 10.363281 13.488281 10.117188 13.242188 10.117188 12.9375 C 10.117188 12.632812 10.363281 12.386719 10.667969 12.386719 C 10.972656 12.386719 11.21875 12.632812 11.21875 12.9375 C 11.21875 13.242188 10.972656 13.488281 10.667969 13.488281 Z M 10.667969 13.488281 "/>
<path style=" stroke:none;fill-rule:nonzero;fill:rgb(15.686275%,25.882354%,40.784314%);fill-opacity:1;" d="M 15.230469 10.886719 C 14.097656 10.886719 13.179688 11.804688 13.179688 12.9375 C 13.179688 14.070312 14.097656 14.988281 15.230469 14.988281 C 16.363281 14.988281 17.28125 14.070312 17.28125 12.9375 C 17.277344 11.804688 16.363281 10.890625 15.230469 10.886719 Z M 15.230469 13.488281 C 14.925781 13.488281 14.679688 13.242188 14.679688 12.9375 C 14.679688 12.632812 14.925781 12.386719 15.230469 12.386719 C 15.535156 12.386719 15.78125 12.632812 15.78125 12.9375 C 15.78125 13.242188 15.535156 13.488281 15.230469 13.488281 Z M 15.230469 13.488281 "/>
<path style=" stroke:none;fill-rule:nonzero;fill:rgb(15.686275%,25.882354%,40.784314%);fill-opacity:1;" d="M 5.664062 19.128906 C 5.25 19.128906 4.914062 19.464844 4.914062 19.878906 L 4.914062 20.667969 C 4.914062 21.082031 5.25 21.417969 5.664062 21.417969 C 6.078125 21.417969 6.414062 21.082031 6.414062 20.667969 L 6.414062 19.878906 C 6.414062 19.464844 6.078125 19.128906 5.664062 19.128906 Z M 5.664062 19.128906 "/>
<path style=" stroke:none;fill-rule:nonzero;fill:rgb(15.686275%,25.882354%,40.784314%);fill-opacity:1;" d="M 5.664062 22.292969 C 5.25 22.292969 4.914062 22.628906 4.914062 23.042969 L 4.914062 36.292969 C 4.914062 36.707031 5.25 37.042969 5.664062 37.042969 C 6.078125 37.042969 6.414062 36.707031 6.414062 36.292969 L 6.414062 23.042969 C 6.414062 22.628906 6.078125 22.292969 5.664062 22.292969 Z M 5.664062 22.292969 "/>
<path style=" stroke:none;fill-rule:nonzero;fill:rgb(15.686275%,25.882354%,40.784314%);fill-opacity:1;" d="M 40.863281 25.011719 L 23.136719 25.011719 C 22.722656 25.011719 22.386719 25.347656 22.386719 25.761719 L 22.386719 46.988281 C 22.386719 47.402344 22.722656 47.738281 23.136719 47.738281 L 40.863281 47.738281 C 41.277344 47.738281 41.613281 47.402344 41.613281 46.988281 L 41.613281 25.761719 C 41.613281 25.347656 41.277344 25.011719 40.863281 25.011719 Z M 39.261719 26.511719 L 32 35.203125 L 24.738281 26.511719 Z M 23.886719 27.828125 L 31.023438 36.375 L 23.886719 44.921875 Z M 24.738281 46.238281 L 32 37.546875 L 39.261719 46.238281 Z M 40.113281 44.921875 L 32.976562 36.375 L 40.113281 27.828125 Z M 40.113281 44.921875 "/>
<path style=" stroke:none;fill-rule:nonzero;fill:rgb(15.686275%,25.882354%,40.784314%);fill-opacity:1;" d="M 15.726562 34.523438 C 15.585938 34.382812 15.394531 34.304688 15.195312 34.304688 C 14.996094 34.304688 14.804688 34.382812 14.664062 34.523438 L 13.09375 36.09375 C 12.953125 36.234375 12.875 36.425781 12.875 36.625 C 12.875 36.824219 12.953125 37.015625 13.09375 37.15625 L 14.664062 38.726562 C 14.957031 39.019531 15.433594 39.019531 15.726562 38.726562 C 16.019531 38.433594 16.019531 37.957031 15.726562 37.664062 L 14.6875 36.625 L 15.726562 35.585938 C 16.019531 35.292969 16.019531 34.816406 15.726562 34.523438 Z M 15.726562 34.523438 "/>
<path style=" stroke:none;fill-rule:nonzero;fill:rgb(15.686275%,25.882354%,40.784314%);fill-opacity:1;" d="M 14.546875 32.03125 C 12.007812 32.03125 9.953125 34.089844 9.953125 36.625 C 9.953125 39.160156 12.007812 41.21875 14.546875 41.21875 C 17.082031 41.21875 19.140625 39.160156 19.140625 36.625 C 19.136719 34.089844 17.082031 32.035156 14.546875 32.03125 Z M 14.546875 39.71875 C 12.835938 39.71875 11.453125 38.332031 11.453125 36.625 C 11.453125 34.917969 12.835938 33.53125 14.546875 33.53125 C 16.253906 33.53125 17.640625 34.917969 17.640625 36.625 C 17.636719 38.332031 16.253906 39.71875 14.546875 39.71875 Z M 14.546875 39.71875 "/>
<path style=" stroke:none;fill-rule:nonzero;fill:rgb(15.686275%,25.882354%,40.784314%);fill-opacity:1;" d="M 48.273438 38.726562 C 48.414062 38.867188 48.605469 38.945312 48.804688 38.945312 C 49.003906 38.945312 49.195312 38.867188 49.335938 38.726562 L 50.90625 37.15625 C 51.046875 37.015625 51.125 36.824219 51.125 36.625 C 51.125 36.425781 51.046875 36.234375 50.90625 36.09375 L 49.335938 34.523438 C 49.042969 34.230469 48.566406 34.230469 48.273438 34.523438 C 47.980469 34.816406 47.980469 35.292969 48.273438 35.585938 L 49.3125 36.625 L 48.273438 37.664062 C 47.980469 37.957031 47.980469 38.433594 48.273438 38.726562 Z M 48.273438 38.726562 "/>
<path style=" stroke:none;fill-rule:nonzero;fill:rgb(15.686275%,25.882354%,40.784314%);fill-opacity:1;" d="M 44.859375 36.625 C 44.859375 39.160156 46.917969 41.21875 49.453125 41.21875 C 51.988281 41.21875 54.046875 39.160156 54.046875 36.625 C 54.046875 34.089844 51.992188 32.03125 49.453125 32.03125 C 46.917969 32.035156 44.863281 34.089844 44.859375 36.625 Z M 49.453125 33.53125 C 51.164062 33.53125 52.546875 34.917969 52.546875 36.625 C 52.546875 38.332031 51.164062 39.71875 49.453125 39.71875 C 47.746094 39.71875 46.359375 38.332031 46.359375 36.625 C 46.363281 34.917969 47.746094 33.53125 49.453125 33.53125 Z M 49.453125 33.53125 "/>
</g>
</svg>
